<?xml version="1.0" encoding="UTF-8"?>
<svg width="474px" height="492px" viewBox="0 0 474 492" version="1.1" xmlns="http://www.w3.org/2000/svg" xmlns:xlink="http://www.w3.org/1999/xlink">
    <!-- Generator: Sketch 44.1 (41455) - http://www.bohemiancoding.com/sketch -->
    <title>Visual</title>
    <desc>Created with Sketch.</desc>
    <defs>
        <linearGradient x1="83.4882461%" y1="112.300783%" x2="26.1774805%" y2="-26.2978485%" id="linearGradient-1">
            <stop stop-color="#7084B9" offset="0%"></stop>
            <stop stop-color="#E7E9ED" offset="100%"></stop>
        </linearGradient>
        <rect id="path-2" x="0.25" y="0.85515873" width="152.5" height="151.289683" rx="75.6448413"></rect>
        <filter x="-16.7%" y="-10.2%" width="133.4%" height="133.7%" filterUnits="objectBoundingBox" id="filter-3">
            <feOffset dx="0" dy="10" in="SourceAlpha" result="shadowOffsetOuter1"></feOffset>
            <feGaussianBlur stdDeviation="5.5" in="shadowOffsetOuter1" result="shadowBlurOuter1"></feGaussianBlur>
            <feColorMatrix values="0 0 0 0 0   0 0 0 0 0   0 0 0 0 0  0 0 0 0.05 0" type="matrix" in="shadowBlurOuter1" result="shadowMatrixOuter1"></feColorMatrix>
            <feOffset dx="0" dy="0" in="SourceAlpha" result="shadowOffsetOuter2"></feOffset>
            <feGaussianBlur stdDeviation="2" in="shadowOffsetOuter2" result="shadowBlurOuter2"></feGaussianBlur>
            <feColorMatrix values="0 0 0 0 0   0 0 0 0 0   0 0 0 0 0  0 0 0 0.055225317 0" type="matrix" in="shadowBlurOuter2" result="shadowMatrixOuter2"></feColorMatrix>
            <feMerge>
                <feMergeNode in="shadowMatrixOuter1"></feMergeNode>
                <feMergeNode in="shadowMatrixOuter2"></feMergeNode>
            </feMerge>
        </filter>
        <linearGradient x1="50%" y1="0%" x2="119.438787%" y2="81.1659844%" id="linearGradient-4">
            <stop stop-color="#9CA9CC" offset="0%"></stop>
            <stop stop-color="#C9D0E0" offset="100%"></stop>
        </linearGradient>
        <rect id="path-5" x="0.25" y="0.831349206" width="146.5" height="145.337302" rx="72.6686508"></rect>
        <filter x="-17.4%" y="-10.7%" width="134.8%" height="135.1%" filterUnits="objectBoundingBox" id="filter-6">
            <feOffset dx="0" dy="10" in="SourceAlpha" result="shadowOffsetOuter1"></feOffset>
            <feGaussianBlur stdDeviation="5.5" in="shadowOffsetOuter1" result="shadowBlurOuter1"></feGaussianBlur>
            <feColorMatrix values="0 0 0 0 0   0 0 0 0 0   0 0 0 0 0  0 0 0 0.05 0" type="matrix" in="shadowBlurOuter1" result="shadowMatrixOuter1"></feColorMatrix>
            <feOffset dx="0" dy="0" in="SourceAlpha" result="shadowOffsetOuter2"></feOffset>
            <feGaussianBlur stdDeviation="2" in="shadowOffsetOuter2" result="shadowBlurOuter2"></feGaussianBlur>
            <feColorMatrix values="0 0 0 0 0   0 0 0 0 0   0 0 0 0 0  0 0 0 0.055225317 0" type="matrix" in="shadowBlurOuter2" result="shadowMatrixOuter2"></feColorMatrix>
            <feMerge>
                <feMergeNode in="shadowMatrixOuter1"></feMergeNode>
                <feMergeNode in="shadowMatrixOuter2"></feMergeNode>
            </feMerge>
        </filter>
        <rect id="path-7" x="239.25" y="176.831349" width="146.5" height="145.337302" rx="72.6686508"></rect>
        <filter x="-17.4%" y="-10.7%" width="134.8%" height="135.1%" filterUnits="objectBoundingBox" id="filter-8">
            <feOffset dx="0" dy="10" in="SourceAlpha" result="shadowOffsetOuter1"></feOffset>
            <feGaussianBlur stdDeviation="5.5" in="shadowOffsetOuter1" result="shadowBlurOuter1"></feGaussianBlur>
            <feColorMatrix values="0 0 0 0 0   0 0 0 0 0   0 0 0 0 0  0 0 0 0.05 0" type="matrix" in="shadowBlurOuter1" result="shadowMatrixOuter1"></feColorMatrix>
            <feOffset dx="0" dy="0" in="SourceAlpha" result="shadowOffsetOuter2"></feOffset>
            <feGaussianBlur stdDeviation="2" in="shadowOffsetOuter2" result="shadowBlurOuter2"></feGaussianBlur>
            <feColorMatrix values="0 0 0 0 0   0 0 0 0 0   0 0 0 0 0  0 0 0 0.055225317 0" type="matrix" in="shadowBlurOuter2" result="shadowMatrixOuter2"></feColorMatrix>
            <feMerge>
                <feMergeNode in="shadowMatrixOuter1"></feMergeNode>
                <feMergeNode in="shadowMatrixOuter2"></feMergeNode>
            </feMerge>
        </filter>
        <circle id="path-9" cx="152.805233" cy="118.805233" r="45.8052332"></circle>
        <filter x="-27.8%" y="-16.9%" width="155.7%" height="155.7%" filterUnits="objectBoundingBox" id="filter-10">
            <feOffset dx="0" dy="10" in="SourceAlpha" result="shadowOffsetOuter1"></feOffset>
            <feGaussianBlur stdDeviation="5.5" in="shadowOffsetOuter1" result="shadowBlurOuter1"></feGaussianBlur>
            <feColorMatrix values="0 0 0 0 0   0 0 0 0 0   0 0 0 0 0  0 0 0 0.05 0" type="matrix" in="shadowBlurOuter1" result="shadowMatrixOuter1"></feColorMatrix>
            <feOffset dx="0" dy="0" in="SourceAlpha" result="shadowOffsetOuter2"></feOffset>
            <feGaussianBlur stdDeviation="2" in="shadowOffsetOuter2" result="shadowBlurOuter2"></feGaussianBlur>
            <feColorMatrix values="0 0 0 0 0   0 0 0 0 0   0 0 0 0 0  0 0 0 0.055225317 0" type="matrix" in="shadowBlurOuter2" result="shadowMatrixOuter2"></feColorMatrix>
            <feMerge>
                <feMergeNode in="shadowMatrixOuter1"></feMergeNode>
                <feMergeNode in="shadowMatrixOuter2"></feMergeNode>
            </feMerge>
        </filter>
    </defs>
    <g id="Page-1" stroke="none" stroke-width="1" fill="none" fill-rule="evenodd">
        <g id="Homepage---Version-3d" transform="translate(-686.000000, -2401.000000)">
            <g id="Stacked-Group" transform="translate(-3.000000, 813.000000)">
                <g id="Continuous" transform="translate(0.000000, 1465.000000)">
                    <g id="Visual" transform="translate(699.575087, 127.000000)">
                        <g id="Lines" transform="translate(59.457498, 147.813085)" stroke="#CBCBCB" opacity="0.5">
                            <path d="M155.467415,120.006429 L1.46741527,242.33201" id="Line" stroke-linecap="square"></path>
                            <path d="M163.467415,107.87077 L163.467415,0.686915058" id="Path-6"></path>
                            <path d="M171.467415,120.029597 L328.467415,259.6383" id="Line" stroke-linecap="square"></path>
                        </g>
                        <circle id="Oval-5" stroke="url(#linearGradient-1)" stroke-width="6" stroke-linecap="round" stroke-linejoin="round" cx="222.5" cy="264.5" r="188.5"></circle>
                        <polygon id="Path-5" fill="#C6CDDF" transform="translate(46.227069, 196.356201) rotate(24.000000) translate(-46.227069, -196.356201) " points="55.9377243 204.712401 59.4541374 201.157849 46.1535785 188 33 201.168351 36.5375176 204.7019 46.1745815 195.054013"></polygon>
                        <polygon id="Path-5" fill="#AEB8D4" transform="translate(391.482302, 183.013703) rotate(-195.000000) translate(-391.482302, -183.013703) " points="401.192957 191.369903 404.70937 187.815351 391.408811 174.657502 378.255233 187.825853 381.79275 191.359402 391.429814 181.711515"></polygon>
                        <polygon id="Path-5" fill="#8293C1" transform="translate(229.939111, 452.494887) rotate(-90.000000) translate(-229.939111, -452.494887) " points="239.649767 460.851088 243.16618 457.296536 229.865621 444.138687 216.712042 457.307038 220.24956 460.840587 229.886624 451.1927"></polygon>
                        <g id="1" transform="translate(145.000000, 0.000000)">
                            <g id="2">
                                <g id="Rectangle-5">
                                    <use fill="black" fill-opacity="1" filter="url(#filter-3)" xlink:href="#path-2"></use>
                                    <use fill="#FEFEFE" fill-rule="evenodd" xlink:href="#path-2"></use>
                                </g>
                                <circle id="Oval-4" fill="url(#linearGradient-4)" cx="77" cy="71" r="29"></circle>
                                <path d="M57.614,120.1 C57.614,122.858 55.486,125 52.406,125 L49.004,125 L49.004,115.2 L52.406,115.2 C55.486,115.2 57.614,117.314 57.614,120.072 L57.614,120.1 Z M56.466,120.128 L56.466,120.1 C56.466,117.93 54.884,116.222 52.406,116.222 L50.11,116.222 L50.11,123.978 L52.406,123.978 C54.884,123.978 56.466,122.312 56.466,120.128 Z M66.168,121.612 C66.168,121.668 66.168,121.738 66.154,121.822 L60.414,121.822 C60.568,123.348 61.688,124.23 62.962,124.23 C63.97,124.23 64.642,123.824 65.244,123.208 L65.916,123.81 C65.188,124.636 64.32,125.168 62.934,125.168 C60.96,125.168 59.322,123.642 59.322,121.388 C59.322,119.288 60.778,117.608 62.794,117.608 C64.936,117.608 66.168,119.316 66.168,121.444 L66.168,121.612 Z M65.076,120.954 C64.964,119.652 64.18,118.518 62.766,118.518 C61.534,118.518 60.568,119.554 60.414,120.954 L65.076,120.954 Z M74.582,117.762 L73.42,117.762 L70.97,123.768 L68.534,117.762 L67.344,117.762 L70.48,125.056 L71.432,125.056 L74.582,117.762 Z M82.674,121.612 C82.674,121.668 82.674,121.738 82.66,121.822 L76.92,121.822 C77.074,123.348 78.194,124.23 79.468,124.23 C80.476,124.23 81.148,123.824 81.75,123.208 L82.422,123.81 C81.694,124.636 80.826,125.168 79.44,125.168 C77.466,125.168 75.828,123.642 75.828,121.388 C75.828,119.288 77.284,117.608 79.3,117.608 C81.442,117.608 82.674,119.316 82.674,121.444 L82.674,121.612 Z M81.582,120.954 C81.47,119.652 80.686,118.518 79.272,118.518 C78.04,118.518 77.074,119.554 76.92,120.954 L81.582,120.954 Z M85.74,125 L85.74,114.78 L84.662,114.78 L84.662,125 L85.74,125 Z M95.344,121.388 C95.344,123.446 93.734,125.168 91.55,125.168 C89.38,125.168 87.798,123.46 87.798,121.416 L87.798,121.388 C87.798,119.33 89.408,117.608 91.578,117.608 C93.762,117.608 95.344,119.316 95.344,121.36 L95.344,121.388 Z M94.238,121.416 L94.238,121.388 C94.238,119.834 93.076,118.56 91.55,118.56 C89.982,118.56 88.904,119.834 88.904,121.36 L88.904,121.388 C88.904,122.942 90.052,124.202 91.578,124.202 C93.146,124.202 94.238,122.928 94.238,121.416 Z M104.598,121.388 C104.598,123.74 102.89,125.154 101.14,125.154 C99.796,125.154 98.928,124.44 98.368,123.614 L98.368,127.24 L97.29,127.24 L97.29,117.762 L98.368,117.762 L98.368,119.218 C98.97,118.35 99.796,117.608 101.14,117.608 C102.876,117.608 104.598,118.98 104.598,121.36 L104.598,121.388 Z M103.492,121.402 L103.492,121.374 C103.492,119.652 102.33,118.574 100.944,118.574 C99.6,118.574 98.326,119.708 98.326,121.36 L98.326,121.388 C98.326,123.068 99.6,124.188 100.944,124.188 C102.344,124.188 103.492,123.152 103.492,121.402 Z" id="Develop" fill="#818791"></path>
                                <g id="Group-11" transform="translate(66.000000, 55.000000)" stroke="#FEFEFE" stroke-width="2" stroke-linecap="round" stroke-linejoin="round">
                                    <path d="M8.79985333,0 L7.33318667,0 C5.30772,0 3.66652,1.60623913 3.66652,3.58695652 L3.66652,12.3240652 C3.66652,14.334913 2.21525333,16.0666957 0.200053333,16.4612609 L-0.000146666667,16.5 L0.198586667,16.5387391 C2.21525333,16.9333043 3.66578667,18.665087 3.66505333,20.6766522 L3.66212,29.4123261 C3.66138667,31.3930435 5.30258667,33 7.32878667,33 L8.79985333,33" id="Stroke-1"></path>
                                    <path d="M13.1998533,32.999713 L14.66652,32.999713 C16.6919867,32.999713 18.3331867,31.3941913 18.3331867,29.4127565 L18.3331867,20.8435174 C18.3331867,18.7580609 19.8907867,16.9861043 21.9976533,16.6726043 L21.9998533,16.6726043 L21.60092,16.5757565 C19.67372,16.1101696 18.32072,14.4178435 18.32292,12.4765826 L18.33392,3.59097391 C18.33612,1.60810435 16.6941867,-0.000286956521 14.6672533,-0.000286956521 L13.1998533,-0.000286956521" id="Stroke-3"></path>
                                </g>
                            </g>
                        </g>
                        <g id="2" transform="translate(0.000000, 321.000000)">
                            <g id="1">
                                <g id="Rectangle-5">
                                    <use fill="black" fill-opacity="1" filter="url(#filter-6)" xlink:href="#path-5"></use>
                                    <use fill="#FEFEFE" fill-rule="evenodd" xlink:href="#path-5"></use>
                                </g>
                                <path d="M58.73,117.1 C58.73,119.858 56.602,122 53.522,122 L50.12,122 L50.12,112.2 L53.522,112.2 C56.602,112.2 58.73,114.314 58.73,117.072 L58.73,117.1 Z M57.582,117.128 L57.582,117.1 C57.582,114.93 56,113.222 53.522,113.222 L51.226,113.222 L51.226,120.978 L53.522,120.978 C56,120.978 57.582,119.312 57.582,117.128 Z M67.284,118.612 C67.284,118.668 67.284,118.738 67.27,118.822 L61.53,118.822 C61.684,120.348 62.804,121.23 64.078,121.23 C65.086,121.23 65.758,120.824 66.36,120.208 L67.032,120.81 C66.304,121.636 65.436,122.168 64.05,122.168 C62.076,122.168 60.438,120.642 60.438,118.388 C60.438,116.288 61.894,114.608 63.91,114.608 C66.052,114.608 67.284,116.316 67.284,118.444 L67.284,118.612 Z M66.192,117.954 C66.08,116.652 65.296,115.518 63.882,115.518 C62.65,115.518 61.684,116.554 61.53,117.954 L66.192,117.954 Z M76.482,118.388 C76.482,120.74 74.774,122.154 73.024,122.154 C71.68,122.154 70.812,121.44 70.252,120.614 L70.252,124.24 L69.174,124.24 L69.174,114.762 L70.252,114.762 L70.252,116.218 C70.854,115.35 71.68,114.608 73.024,114.608 C74.76,114.608 76.482,115.98 76.482,118.36 L76.482,118.388 Z M75.376,118.402 L75.376,118.374 C75.376,116.652 74.214,115.574 72.828,115.574 C71.484,115.574 70.21,116.708 70.21,118.36 L70.21,118.388 C70.21,120.068 71.484,121.188 72.828,121.188 C74.228,121.188 75.376,120.152 75.376,118.402 Z M79.646,122 L79.646,111.78 L78.568,111.78 L78.568,122 L79.646,122 Z M89.25,118.388 C89.25,120.446 87.64,122.168 85.456,122.168 C83.286,122.168 81.704,120.46 81.704,118.416 L81.704,118.388 C81.704,116.33 83.314,114.608 85.484,114.608 C87.668,114.608 89.25,116.316 89.25,118.36 L89.25,118.388 Z M88.144,118.416 L88.144,118.388 C88.144,116.834 86.982,115.56 85.456,115.56 C83.888,115.56 82.81,116.834 82.81,118.36 L82.81,118.388 C82.81,119.942 83.958,121.202 85.484,121.202 C87.052,121.202 88.144,119.928 88.144,118.416 Z M97.762,114.762 L96.614,114.762 L94.29,120.796 L91.658,114.762 L90.468,114.762 L93.758,121.972 C93.324,122.994 92.932,123.33 92.274,123.33 C91.812,123.33 91.49,123.246 91.14,123.064 L90.776,123.918 C91.266,124.156 91.714,124.282 92.316,124.282 C93.394,124.282 94.122,123.736 94.724,122.238 L97.762,114.762 Z" id="Deploy" fill="#818791"></path>
                                <circle id="Oval-4" fill="url(#linearGradient-4)" cx="74" cy="68" r="29"></circle>
                                <polygon id="Page-1" stroke="#FEFEFE" stroke-width="2" stroke-linecap="round" stroke-linejoin="round" points="69 58.75 69 78 84.2307692 68.375"></polygon>
                            </g>
                        </g>
                        <g id="3" transform="translate(67.000000, 145.000000)">
                            <g id="1">
                                <g id="Rectangle-5">
                                    <use fill="black" fill-opacity="1" filter="url(#filter-8)" xlink:href="#path-7"></use>
                                    <use fill="#FEFEFE" fill-rule="evenodd" xlink:href="#path-7"></use>
                                </g>
                                <path d="M288.798,289.222 L288.798,288.2 L281.098,288.2 L281.098,289.222 L284.388,289.222 L284.388,298 L285.508,298 L285.508,289.222 L288.798,289.222 Z M294.72,291.798 L294.72,290.636 C293.362,290.566 292.284,291.462 291.766,292.652 L291.766,290.762 L290.688,290.762 L290.688,298 L291.766,298 L291.766,295.116 C291.766,292.932 293.054,291.798 294.636,291.798 L294.72,291.798 Z M302.182,298 L301.118,298 L301.118,296.922 C300.628,297.552 299.788,298.154 298.514,298.154 C297.156,298.154 295.812,297.384 295.812,295.9 L295.812,295.872 C295.812,294.318 297.072,293.506 298.906,293.506 C299.844,293.506 300.46,293.632 301.118,293.814 L301.118,293.59 C301.118,292.302 300.334,291.63 298.976,291.63 C298.122,291.63 297.45,291.826 296.778,292.148 L296.456,291.266 C297.254,290.888 298.024,290.65 299.088,290.65 C300.11,290.65 300.894,290.916 301.426,291.448 C301.93,291.952 302.182,292.666 302.182,293.576 L302.182,298 Z M301.132,295.34 L301.132,294.668 C300.586,294.514 299.914,294.36 299.018,294.36 C297.674,294.36 296.904,294.934 296.904,295.816 L296.904,295.844 C296.904,296.754 297.758,297.286 298.724,297.286 C300.054,297.286 301.132,296.502 301.132,295.34 Z M310.792,298 L310.792,293.506 C310.792,291.784 309.756,290.608 308.02,290.608 C306.774,290.608 306.032,291.238 305.542,292.022 L305.542,290.762 L304.464,290.762 L304.464,298 L305.542,298 L305.542,293.856 C305.542,292.498 306.466,291.588 307.712,291.588 C309,291.588 309.714,292.428 309.714,293.772 L309.714,298 L310.792,298 Z M318.058,295.97 L318.058,295.942 C318.058,294.64 316.854,294.206 315.734,293.87 C314.768,293.576 313.872,293.31 313.872,292.624 L313.872,292.596 C313.872,291.994 314.418,291.546 315.272,291.546 C315.986,291.546 316.742,291.812 317.414,292.246 L317.904,291.434 C317.162,290.944 316.196,290.636 315.3,290.636 C313.872,290.636 312.836,291.462 312.836,292.708 L312.836,292.736 C312.836,294.08 314.11,294.444 315.23,294.78 C316.182,295.032 317.036,295.34 317.036,296.054 L317.036,296.082 C317.036,296.796 316.42,297.23 315.538,297.23 C314.684,297.23 313.816,296.908 313.032,296.306 L312.486,297.076 C313.312,297.734 314.432,298.14 315.482,298.14 C316.924,298.14 318.058,297.342 318.058,295.97 Z M321.236,298 L321.236,287.78 L320.158,287.78 L320.158,298 L321.236,298 Z M329.566,298 L328.502,298 L328.502,296.922 C328.012,297.552 327.172,298.154 325.898,298.154 C324.54,298.154 323.196,297.384 323.196,295.9 L323.196,295.872 C323.196,294.318 324.456,293.506 326.29,293.506 C327.228,293.506 327.844,293.632 328.502,293.814 L328.502,293.59 C328.502,292.302 327.718,291.63 326.36,291.63 C325.506,291.63 324.834,291.826 324.162,292.148 L323.84,291.266 C324.638,290.888 325.408,290.65 326.472,290.65 C327.494,290.65 328.278,290.916 328.81,291.448 C329.314,291.952 329.566,292.666 329.566,293.576 L329.566,298 Z M328.516,295.34 L328.516,294.668 C327.97,294.514 327.298,294.36 326.402,294.36 C325.058,294.36 324.288,294.934 324.288,295.816 L324.288,295.844 C324.288,296.754 325.142,297.286 326.108,297.286 C327.438,297.286 328.516,296.502 328.516,295.34 Z M335.6,291.714 L335.6,290.762 L333.304,290.762 L333.304,288.578 L332.226,288.578 L332.226,290.762 L331.218,290.762 L331.218,291.714 L332.226,291.714 L332.226,296.082 C332.226,297.552 333.094,298.126 334.27,298.126 C334.788,298.126 335.194,298.028 335.572,297.818 L335.572,296.894 C335.194,297.076 334.9,297.146 334.522,297.146 C333.794,297.146 333.304,296.838 333.304,295.942 L333.304,291.714 L335.6,291.714 Z M343.902,294.612 C343.902,294.668 343.902,294.738 343.888,294.822 L338.148,294.822 C338.302,296.348 339.422,297.23 340.696,297.23 C341.704,297.23 342.376,296.824 342.978,296.208 L343.65,296.81 C342.922,297.636 342.054,298.168 340.668,298.168 C338.694,298.168 337.056,296.642 337.056,294.388 C337.056,292.288 338.512,290.608 340.528,290.608 C342.67,290.608 343.902,292.316 343.902,294.444 L343.902,294.612 Z M342.81,293.954 C342.698,292.652 341.914,291.518 340.5,291.518 C339.268,291.518 338.302,292.554 338.148,293.954 L342.81,293.954 Z" id="Translate" fill="#818791"></path>
                                <circle id="Oval-4" fill="url(#linearGradient-4)" cx="313" cy="244" r="29"></circle>
                                <g id="Icon" transform="translate(299.000000, 227.000000)" stroke="#FEFEFE" stroke-width="2" stroke-linecap="round" stroke-linejoin="round">
                                    <polyline id="Shape" points="13.6244825 7.50369232 3.86282273 11.1652469 0.8798862 30.5543344 20.2689736 27.5713978 23.9305282 17.809738"></polyline>
                                    <path d="M0.8798862,30.5543344 L10.7026962,20.7315244" id="Shape"></path>
                                    <rect id="Rectangle-path" transform="translate(21.014937, 10.418985) rotate(-45.000000) translate(-21.014937, -10.418985) " x="17.8508172" y="-0.127085499" width="6.32823916" height="21.0921419"></rect>
                                    <circle id="Oval" transform="translate(12.811334, 18.622588) rotate(-45.000000) translate(-12.811334, -18.622588) " cx="12.811334" cy="18.6225882" r="2.98290792"></circle>
                                </g>
                                <g id="Circle" transform="translate(0.457498, 0.813085)">
                                    <g id="Group-10"></g>
                                    <g id="Oval-2-Copy">
                                        <use fill="black" fill-opacity="1" filter="url(#filter-10)" xlink:href="#path-9"></use>
                                        <use fill="#FEFEFE" fill-rule="evenodd" xlink:href="#path-9"></use>
                                    </g>
                                    <g id="Icon" transform="translate(132.353696, 98.098758)" fill="#0064AB">
                                        <path d="M13.4384602,31.2626788 C13.4538689,31.2613198 13.4694211,31.2604562 13.4851008,31.2601037 L12.1197284,31.2601037 C10.7116881,31.2601037 10.093857,30.0758986 10.093857,28.5528604 L10.093857,14.1284901 C10.093857,13.7126493 10.43008,13.3738161 10.8465186,13.3738161 L13.4475531,13.3738161 C13.8639916,13.3738161 14.2019213,13.0366941 14.2019213,12.6191421 L14.2019213,9.27530302 C14.2019213,8.85946224 13.8639916,8.52062901 13.4475531,8.52062901 L10.8465186,8.52062901 C10.43008,8.52062901 10.093857,8.18350705 10.093857,7.76595499 L10.093857,0.754845144 C10.093857,0.339004359 9.75592735,0.000171127894 9.33948876,0.000171127894 L5.27409235,0.000171127894 C4.85936048,0.000171127894 4.5214308,0.339004359 4.5214308,0.754845144 L4.5214308,7.76595499 C4.5214308,8.18350705 4.18350112,8.52062901 3.76876925,8.52062901 L0.753002895,8.52062901 C0.336564304,8.52062901 0.000341343108,8.85946224 0.000341343108,9.27530302 L0.000341343108,12.6191421 C0.000341343108,13.0366941 0.336564304,13.3738161 0.753002895,13.3738161 L3.76876925,13.3738161 C4.18350112,13.3738161 4.5214308,13.7126493 4.5214308,14.1284901 L4.5214308,29.5676488 C4.5214308,34.0255304 7.39212633,36.452124 11.2749042,36.452124 L13.4475531,36.452124 C13.8639916,36.452124 14.2019213,36.115002 14.2019213,35.69745 L14.2019213,32.1515422 C14.2050905,32.1229153 14.2067163,32.0938312 14.2067163,32.064369 C14.2067163,32.0347638 14.2050907,32.0055561 14.2019213,31.9768228 L14.2019213,31.961728 C14.2019213,31.9663683 14.2018765,31.9709979 14.2017873,31.9756163 C14.1587501,31.5908738 13.8388544,31.2914748 13.4384602,31.2626788 Z M28.7760773,28.1353083 L23.7088389,36.0653749 C23.5535278,36.3066653 23.2872801,36.452124 23.0022586,36.452124 L18.3941267,36.452124 C17.7233875,36.452124 17.3240161,35.7008725 17.6977868,35.1429956 L26.0743466,22.6455254 C26.263792,22.3614531 26.263792,21.9901056 26.0743466,21.7077446 L18.0903313,9.77499647 C17.7165606,9.21540826 18.1159321,8.4641568 18.788378,8.4641568 L23.3862696,8.4641568 C23.678118,8.4641568 23.9477791,8.61646063 24.1013835,8.8628848 L28.7692504,16.4455618 C29.0969398,16.9777696 29.870082,16.9777696 30.1977714,16.4455618 L34.8639316,8.8628848 C35.017536,8.61646063 35.2871971,8.4641568 35.5790454,8.4641568 L40.1786438,8.4641568 C40.849383,8.4641568 41.2487545,9.21540826 40.8749837,9.77499647 L32.8926752,21.7077446 C32.701523,21.9901056 32.701523,22.3614531 32.8926752,22.6455254 L41.2658216,35.1429956 C41.641299,35.7008725 41.2419276,36.452124 40.5694817,36.452124 L35.9630564,36.452124 C35.6780349,36.452124 35.4117873,36.3066653 35.2564762,36.0653749 L30.1892378,28.1353083 C29.8598417,27.6185021 29.1054734,27.6185021 28.7760773,28.1353083 Z" id="Combined-Shape"></path>
                                    </g>
                                </g>
                            </g>
                        </g>
                    </g>
                </g>
            </g>
        </g>
    </g>
</svg>