
<svg width="39px" height="39px" viewBox="0 0 39 39" version="1.1" xmlns="http://www.w3.org/2000/svg" xmlns:xlink="http://www.w3.org/1999/xlink">
    <!-- Generator: Sketch 39.1 (31720) - http://www.bohemiancoding.com/sketch -->
    <desc>Created with Sketch.</desc>
    <defs></defs>
    <g id="Icon---Developers" stroke="none" stroke-width="1" fill="none" fill-rule="evenodd" transform="translate(0.583588, 0.000000)">
        <path d="M2.60548591,2.22739478 C2.15751533,2.22739478 1.79247215,2.59243796 1.79247215,3.04040854 L1.79247215,35.5609587 C1.79247215,36.0089293 2.15751533,36.3739725 2.60548591,36.3739725 L35.1260361,36.3739725 C35.5740067,36.3739725 35.9390499,36.0089293 35.9390499,35.5609587 L35.9390499,3.04040854 C35.9390499,2.59243796 35.5740067,2.22739478 35.1260361,2.22739478 L2.60548591,2.22739478 L2.60548591,2.22739478 Z M0.166444644,0.601367275 L37.5650774,0.601367275 L37.5650774,38 L0.166444644,38 L0.166444644,0.601367275 L0.166444644,0.601367275 Z" id="Fill-1" fill="#0092F9"></path>
        <path d="M4.23151342,4.25992917 C4.00712162,4.25992917 3.82500654,4.44204425 3.82500654,4.66643605 C3.82500654,4.89082785 4.00712162,5.07294293 4.23151342,5.07294293 C4.45590521,5.07294293 4.6380203,4.89082785 4.6380203,4.66643605 C4.6380203,4.44204425 4.45590521,4.25992917 4.23151342,4.25992917 M4.23151342,5.88595668 C3.55915104,5.88595668 3.01199279,5.33879842 3.01199279,4.66643605 C3.01199279,3.99407367 3.55915104,3.44691542 4.23151342,3.44691542 C4.90387579,3.44691542 5.45103405,3.99407367 5.45103405,4.66643605 C5.45103405,5.33879842 4.90387579,5.88595668 4.23151342,5.88595668" id="Fill-3" fill="#0092F9"></path>
        <path d="M7.48356844,4.25992917 C7.25917664,4.25992917 7.07706156,4.44204425 7.07706156,4.66643605 C7.07706156,4.89082785 7.25917664,5.07294293 7.48356844,5.07294293 C7.70796023,5.07294293 7.89007532,4.89082785 7.89007532,4.66643605 C7.89007532,4.44204425 7.70796023,4.25992917 7.48356844,4.25992917 M7.48356844,5.88595668 C6.81120606,5.88595668 6.26404781,5.33879842 6.26404781,4.66643605 C6.26404781,3.99407367 6.81120606,3.44691542 7.48356844,3.44691542 C8.15593081,3.44691542 8.70308907,3.99407367 8.70308907,4.66643605 C8.70308907,5.33879842 8.15593081,5.88595668 7.48356844,5.88595668" id="Fill-5" fill="#0092F9"></path>
        <path d="M10.7356235,4.25992917 C10.5112317,4.25992917 10.3291166,4.44204425 10.3291166,4.66643605 C10.3291166,4.89082785 10.5112317,5.07294293 10.7356235,5.07294293 C10.9600153,5.07294293 11.1421303,4.89082785 11.1421303,4.66643605 C11.1421303,4.44204425 10.9600153,4.25992917 10.7356235,4.25992917 M10.7356235,5.88595668 C10.0632611,5.88595668 9.51610283,5.33879842 9.51610283,4.66643605 C9.51610283,3.99407367 10.0632611,3.44691542 10.7356235,3.44691542 C11.4079858,3.44691542 11.9551441,3.99407367 11.9551441,4.66643605 C11.9551441,5.33879842 11.4079858,5.88595668 10.7356235,5.88595668" id="Fill-7" fill="#0092F9"></path>
        <polygon id="Fill-9" fill="#0092F9" points="0.979458399 8.73150482 36.7520636 8.73150482 36.7520636 7.10547731 0.979458399 7.10547731"></polygon>
        <path d="M8.29658219,21.7397249 C8.08845067,21.7397249 7.88031915,21.6600496 7.72178147,21.5015119 L4.27216411,18.0518945 C3.95508874,17.7348191 3.95508874,17.2201814 4.27216411,16.9022931 L7.72178147,13.4534887 C8.03966985,13.1356003 8.55349454,13.1356003 8.87138292,13.4534887 C9.1892713,13.7705641 9.1892713,14.2852018 8.87138292,14.6030902 L5.99656628,17.4770938 L8.87138292,20.3519104 C9.1892713,20.6697988 9.1892713,21.1836235 8.87138292,21.5015119 C8.71284524,21.6600496 8.50471371,21.7397249 8.29658219,21.7397249" id="Fill-11" fill="#0092F9"></path>
        <path d="M29.2376214,21.7397249 C29.0294899,21.7397249 28.8213583,21.6600496 28.6628207,21.5015119 C28.3449323,21.1836235 28.3449323,20.6697988 28.6628207,20.3519104 L31.5376373,17.4770938 L28.6628207,14.6030902 C28.3449323,14.2852018 28.3449323,13.7705641 28.6628207,13.4534887 C28.980709,13.1356003 29.4945337,13.1356003 29.8124221,13.4534887 L33.2620395,16.9022931 C33.5791148,17.2201814 33.5791148,17.7348191 33.2620395,18.0518945 L29.8124221,21.5015119 C29.6538844,21.6600496 29.4457529,21.7397249 29.2376214,21.7397249" id="Fill-12" fill="#0092F9"></path>
        <path d="M35.9390499,27.4308212 L1.79247215,27.4308212 C1.34368856,27.4308212 0.979458399,27.066591 0.979458399,26.6178074 C0.979458399,26.1690238 1.34368856,25.8047937 1.79247215,25.8047937 L35.9390499,25.8047937 C36.3878335,25.8047937 36.7520636,26.1690238 36.7520636,26.6178074 C36.7520636,27.066591 36.3878335,27.4308212 35.9390499,27.4308212" id="Fill-13" fill="#0092F9"></path>
        <path d="M11.5486372,30.6828762 L6.67055468,30.6828762 C6.22177109,30.6828762 5.85754093,30.318646 5.85754093,29.8698625 C5.85754093,29.4210789 6.22177109,29.0568487 6.67055468,29.0568487 L11.5486372,29.0568487 C11.9974208,29.0568487 12.361651,29.4210789 12.361651,29.8698625 C12.361651,30.318646 11.9974208,30.6828762 11.5486372,30.6828762" id="Fill-14" fill="#0092F9"></path>
        <path d="M11.5486372,33.9349312 L6.67055468,33.9349312 C6.22177109,33.9349312 5.85754093,33.5707011 5.85754093,33.1219175 C5.85754093,32.6731339 6.22177109,32.3089037 6.67055468,32.3089037 L11.5486372,32.3089037 C11.9974208,32.3089037 12.361651,32.6731339 12.361651,33.1219175 C12.361651,33.5707011 11.9974208,33.9349312 11.5486372,33.9349312" id="Fill-15" fill="#0092F9"></path>
        <path d="M21.3048023,30.6828762 L16.4267197,30.6828762 C15.9779361,30.6828762 15.613706,30.318646 15.613706,29.8698625 C15.613706,29.4210789 15.9779361,29.0568487 16.4267197,29.0568487 L21.3048023,29.0568487 C21.7535859,29.0568487 22.117816,29.4210789 22.117816,29.8698625 C22.117816,30.318646 21.7535859,30.6828762 21.3048023,30.6828762" id="Fill-16" fill="#0092F9"></path>
        <path d="M21.3048023,33.9349312 L16.4267197,33.9349312 C15.9779361,33.9349312 15.613706,33.5707011 15.613706,33.1219175 C15.613706,32.6731339 15.9779361,32.3089037 16.4267197,32.3089037 L21.3048023,32.3089037 C21.7535859,32.3089037 22.117816,32.6731339 22.117816,33.1219175 C22.117816,33.5707011 21.7535859,33.9349312 21.3048023,33.9349312" id="Fill-17" fill="#0092F9"></path>
        <path d="M31.0609673,30.6828762 L26.1828848,30.6828762 C25.7341012,30.6828762 25.369871,30.318646 25.369871,29.8698625 C25.369871,29.4210789 25.7341012,29.0568487 26.1828848,29.0568487 L31.0609673,29.0568487 C31.5097509,29.0568487 31.8739811,29.4210789 31.8739811,29.8698625 C31.8739811,30.318646 31.5097509,30.6828762 31.0609673,30.6828762" id="Fill-18" fill="#0092F9"></path>
        <path d="M31.0609673,33.9349312 L26.1828848,33.9349312 C25.7341012,33.9349312 25.369871,33.5707011 25.369871,33.1219175 C25.369871,32.6731339 25.7341012,32.3089037 26.1828848,32.3089037 L31.0609673,32.3089037 C31.5097509,32.3089037 31.8739811,32.6731339 31.8739811,33.1219175 C31.8739811,33.5707011 31.5097509,33.9349312 31.0609673,33.9349312" id="Fill-19" fill="#0092F9"></path>
    </g>
</svg>