
<svg width="38px" height="36px" viewBox="0 3 38 36" version="1.1" xmlns="http://www.w3.org/2000/svg" xmlns:xlink="http://www.w3.org/1999/xlink">
    <!-- Generator: Sketch 39.1 (31720) - http://www.bohemiancoding.com/sketch -->
    <desc>Created with Sketch.</desc>
    <defs>
        <polygon id="path-1" points="36.1133283 15.8121489 36.1133283 0.974647914 0.341129557 0.974647914 0.341129557 15.8121489"></polygon>
    </defs>
    <g id="Icon---Product-Managers" stroke="none" stroke-width="1" fill="none" fill-rule="evenodd" transform="translate(0.588108, 3.000000)">
        <g id="Group-3">
            <mask id="mask-2" fill="white">
                <use xlink:href="#path-1"></use>
            </mask>
            <g id="Clip-2"></g>
            <path d="M3.40700443,8.39339843 L18.2274322,14.1275844 L33.0470469,8.39339843 L18.2274322,2.65921241 L3.40700443,8.39339843 Z M18.2274322,15.8121489 C18.1274315,15.8121489 18.0274308,15.7934496 17.9331212,15.757677 L0.859832333,9.15194026 C0.546822037,9.0299882 0.341129557,8.72917311 0.341129557,8.39339843 C0.341129557,8.05762375 0.546822037,7.75680866 0.859832333,7.63485659 L17.9331212,1.02911984 C18.1225534,0.955948598 18.3314979,0.955948598 18.5209301,1.02911984 L35.594219,7.63485659 C35.9072293,7.75680866 36.1137348,8.05762375 36.1137348,8.39339843 C36.1137348,8.72917311 35.9072293,9.0299882 35.594219,9.15194026 L18.5209301,15.757677 C18.4266205,15.7934496 18.3266198,15.8121489 18.2274322,15.8121489 L18.2274322,15.8121489 Z" id="Fill-1" fill="#0092F9" mask="url(#mask-2)"></path>
        </g>
        <path d="M18.2270257,22.9260193 C18.127838,22.9260193 18.0278373,22.90732 17.9335277,22.8715474 L0.86023884,16.2658106 C0.547228544,16.1438586 0.34072305,15.8430435 0.34072305,15.5072688 C0.34072305,15.1714941 0.547228544,14.870679 0.86023884,14.7487269 L9.39688327,11.4462651 C9.81558535,11.2844753 10.2863203,11.4917938 10.4489231,11.9104959 C10.6107128,12.330011 10.4025813,12.800746 9.9838792,12.9625357 L3.40659792,15.5072688 L18.2270257,21.2414548 L33.0466404,15.5072688 L26.4701721,12.9625357 C26.05147,12.800746 25.8433385,12.330011 26.0051283,11.9104959 C26.167731,11.4917938 26.6368399,11.2852884 27.057168,11.4462651 L35.5938125,14.7487269 C35.9068228,14.870679 36.1133283,15.1714941 36.1133283,15.5072688 C36.1133283,15.8430435 35.9068228,16.1438586 35.5938125,16.2658106 L18.5205236,22.8715474 C18.426214,22.90732 18.3262133,22.9260193 18.2270257,22.9260193" id="Fill-4" fill="#0092F9"></path>
        <path d="M18.2270257,29.4301293 C18.127838,29.4301293 18.0278373,29.41143 17.9335277,29.3756574 L0.86023884,22.7699207 C0.547228544,22.6479686 0.34072305,22.3471535 0.34072305,22.0113788 C0.34072305,21.6756041 0.547228544,21.3747891 0.86023884,21.252837 L8.99037639,18.1024087 C9.40989149,17.9398059 9.87981344,18.1479375 10.0424162,18.5674526 C10.2042059,18.9853416 9.9960744,19.4560766 9.57737232,19.6194924 L3.40497189,22.0105658 L18.2270257,27.7455648 L33.0482664,22.0105658 L26.876679,19.6194924 C26.4579769,19.4560766 26.2498454,18.9853416 26.4116351,18.5674526 C26.5742379,18.1479375 27.0449728,17.940619 27.4636749,18.1024087 L35.5938125,21.252837 C35.9068228,21.3747891 36.1133283,21.6756041 36.1133283,22.0113788 C36.1133283,22.3471535 35.9068228,22.6479686 35.5938125,22.7699207 L18.5205236,29.3756574 C18.426214,29.41143 18.3262133,29.4301293 18.2270257,29.4301293" id="Fill-6" fill="#0092F9"></path>
        <path d="M18.2270257,35.9342394 C18.127838,35.9342394 18.0278373,35.9155401 17.9335277,35.8797675 L0.86023884,29.2740307 C0.547228544,29.1520786 0.34072305,28.8512635 0.34072305,28.5154889 C0.34072305,28.1797142 0.547228544,27.8788991 0.86023884,27.756947 L8.99037639,24.6065187 C9.40989149,24.443916 9.87981344,24.6520475 10.0424162,25.0715626 C10.2042059,25.4894517 9.9960744,25.9601866 9.57737232,26.1236024 L3.40497189,28.5146758 L18.2270257,34.2496749 L33.0482664,28.5146758 L26.876679,26.1236024 C26.4579769,25.9601866 26.2498454,25.4894517 26.4116351,25.0715626 C26.5742379,24.6520475 27.0449728,24.444729 27.4636749,24.6065187 L35.5938125,27.756947 C35.9068228,27.8788991 36.1133283,28.1797142 36.1133283,28.5154889 C36.1133283,28.8512635 35.9068228,29.1520786 35.5938125,29.2740307 L18.5205236,35.8797675 C18.426214,35.9155401 18.3262133,35.9342394 18.2270257,35.9342394" id="Fill-8" fill="#0092F9"></path>
    </g>
</svg>