
<svg width="38px" height="38px" viewBox="0 2 38 38" version="1.1" xmlns="http://www.w3.org/2000/svg" xmlns:xlink="http://www.w3.org/1999/xlink">
    <!-- Generator: Sketch 39.1 (31720) - http://www.bohemiancoding.com/sketch -->
    <desc>Created with Sketch.</desc>
    <defs></defs>
    <g id="Icon---Marketers" stroke="none" stroke-width="1" fill="none" fill-rule="evenodd" transform="translate(0.872803, 2.000000)">
        <path d="M35.8241513,37.406161 L2.49058739,37.406161 C1.59383322,37.406161 0.864559885,36.6760746 0.864559885,35.7801334 L0.864559885,2.44656949 C0.864559885,1.99697289 1.22879005,1.63355574 1.67757364,1.63355574 C2.12635723,1.63355574 2.49058739,1.99697289 2.49058739,2.44656949 L2.49058739,35.7801334 L35.8241513,35.7801334 C36.2729349,35.7801334 36.6371651,36.1435506 36.6371651,36.5931472 C36.6371651,37.0427438 36.2729349,37.406161 35.8241513,37.406161" id="Fill-1" fill="#0092F9"></path>
        <path d="M6.55565617,28.4630096 L6.55565617,31.7150647 L8.18249669,31.7150647 L8.18168368,28.4630096 L6.55565617,28.4630096 Z M8.18168368,33.3410922 L6.55565617,33.3410922 C5.658902,33.3410922 4.92962866,32.6110058 4.92962866,31.7150647 L4.92962866,28.4630096 C4.92962866,27.5670685 5.658902,26.8369821 6.55565617,26.8369821 L8.18168368,26.8369821 C9.07843785,26.8369821 9.80771119,27.5670685 9.80771119,28.4630096 L9.80771119,31.7150647 C9.80771119,32.6110058 9.07843785,33.3410922 8.18168368,33.3410922 L8.18168368,33.3410922 Z" id="Fill-3" fill="#0092F9"></path>
        <path d="M13.87278,22.7719134 L13.87278,31.7150647 L15.4996205,31.7150647 L15.4988075,22.7719134 L13.87278,22.7719134 Z M15.4988075,33.3410922 L13.87278,33.3410922 C12.9760258,33.3410922 12.2467525,32.6110058 12.2467525,31.7150647 L12.2467525,22.7719134 C12.2467525,21.8751592 12.9760258,21.1458859 13.87278,21.1458859 L15.4988075,21.1458859 C16.3955616,21.1458859 17.124835,21.8751592 17.124835,22.7719134 L17.124835,31.7150647 C17.124835,32.6110058 16.3955616,33.3410922 15.4988075,33.3410922 L15.4988075,33.3410922 Z" id="Fill-5" fill="#0092F9"></path>
        <path d="M21.1899038,17.0808171 L21.1899038,31.7150647 L22.8167443,31.7150647 L22.8159313,17.0808171 L21.1899038,17.0808171 Z M22.8159313,33.3410922 L21.1899038,33.3410922 C20.2931496,33.3410922 19.5638762,32.6110058 19.5638762,31.7150647 L19.5638762,17.0808171 C19.5638762,16.1840629 20.2931496,15.4547896 21.1899038,15.4547896 L22.8159313,15.4547896 C23.7126854,15.4547896 24.4419588,16.1840629 24.4419588,17.0808171 L24.4419588,31.7150647 C24.4419588,32.6110058 23.7126854,33.3410922 22.8159313,33.3410922 L22.8159313,33.3410922 Z" id="Fill-7" fill="#0092F9"></path>
        <path d="M28.5070276,11.3897208 L28.5070276,31.7150647 L30.1338681,31.7150647 L30.1330551,11.3897208 L28.5070276,11.3897208 Z M30.1330551,33.3410922 L28.5070276,33.3410922 C27.6102734,33.3410922 26.881,32.6110058 26.881,31.7150647 L26.881,11.3897208 C26.881,10.4929666 27.6102734,9.76369329 28.5070276,9.76369329 L30.1330551,9.76369329 C31.0298092,9.76369329 31.7590826,10.4929666 31.7590826,11.3897208 L31.7590826,31.7150647 C31.7590826,32.6110058 31.0298092,33.3410922 30.1330551,33.3410922 L30.1330551,33.3410922 Z" id="Fill-9" fill="#0092F9"></path>
        <path d="M5.7418294,18.7068446 C5.3515828,18.7068446 5.00767798,18.4247288 4.94101085,18.0271651 C4.86783961,17.5848856 5.16702868,17.1653705 5.60930816,17.0921993 C5.72231707,17.0726869 17.0280863,15.0369005 29.5273598,1.09127556 C29.8265489,0.756313895 30.3411866,0.728671428 30.6761482,1.02786049 C31.0102969,1.32786256 31.0379394,1.84168726 30.7387503,2.17583591 C17.8232138,16.5873177 6.3564678,18.6166001 5.87516366,18.6954624 C5.82963489,18.7035925 5.78573214,18.7068446 5.7418294,18.7068446" id="Fill-11" fill="#0092F9"></path>
        <path d="M30.9460688,5.69862451 C30.4972852,5.69862451 30.1330551,5.33520736 30.1330551,4.88561076 L30.1330551,1.63355574 L26.881,1.63355574 C26.4322164,1.63355574 26.0679863,1.27013859 26.0679863,0.820541982 C26.0679863,0.370945375 26.4322164,0.00752822703 26.881,0.00752822703 L30.9460688,0.00752822703 C31.3948524,0.00752822703 31.7590826,0.370945375 31.7590826,0.820541982 L31.7590826,4.88561076 C31.7590826,5.33520736 31.3948524,5.69862451 30.9460688,5.69862451" id="Fill-13" fill="#0092F9"></path>
    </g>
</svg>