
<svg width="41px" height="38px" viewBox="0 0 41 38" version="1.1" xmlns="http://www.w3.org/2000/svg" xmlns:xlink="http://www.w3.org/1999/xlink">
    <!-- Generator: Sketch 39.1 (31720) - http://www.bohemiancoding.com/sketch -->
    <desc>Created with Sketch.</desc>
    <defs></defs>
    <g id="Icon---Localization" stroke="none" stroke-width="1" fill="none" fill-rule="evenodd" transform="translate(0.098536, 0.000000)">
        <path d="M24.7741389,37.1796606 C20.5358982,37.1796606 16.4960329,35.1511913 13.963495,31.7284034 L15.2708211,30.7552259 C17.5309994,33.8097186 20.993625,35.5536331 24.7733259,35.5536331 L24.7985293,35.5536331 C26.6408185,35.5536331 28.4058714,35.1463132 30.0440941,34.3267953 C30.3465352,34.1747618 30.7123914,34.2332987 30.9595476,34.4633816 C32.2538655,35.6593249 35.4360013,35.5536331 37.5490241,35.2788344 C34.9002252,31.9235267 35.4709609,28.9161888 35.4994164,28.7755374 C35.5116116,28.7161874 35.5303109,28.6592764 35.5555143,28.6031785 C36.2628363,27.0438181 36.6189363,25.3779529 36.6148712,23.6511117 C36.6083671,20.3250724 35.2717725,17.2429373 32.8522436,14.9721899 L33.9660724,13.7860028 C36.6750343,16.3299228 38.2335816,19.9242567 38.2408988,23.6478597 C38.2449638,25.5730762 37.8555302,27.4324387 37.0815411,29.1755402 C37.015687,29.6625354 36.8043035,32.3706842 39.7116406,35.2650132 C39.9230242,35.4755838 40.0010735,35.784529 39.9173331,36.0715228 C39.8327797,36.3568907 39.5986317,36.5739653 39.3067598,36.6365674 C38.6457796,36.7772188 33.0636272,37.8772264 30.3034455,36.0040427 C28.5717262,36.789414 26.7229329,37.1796606 24.8017814,37.1796606 L24.7741389,37.1796606 Z" id="Fill-1" fill="#0092F9"></path>
        <path d="M10.91323,26.2969024 C11.0359951,26.2969024 11.1603862,26.3245448 11.2750211,26.3814558 C13.0051144,27.2424374 14.8677289,27.6790258 16.8108318,27.6790258 C23.6962453,27.6790258 29.2979101,22.0464665 29.2979101,15.1236543 C29.2979101,8.2000292 23.6962453,2.56746991 16.8108318,2.56746991 C9.92541831,2.56746991 4.32375353,8.2000292 4.32375353,15.1236543 C4.32375353,16.9472442 4.70261794,18.7033539 5.45140361,20.3456417 C5.47660704,20.4009266 5.49530636,20.4586506 5.50831458,20.5188136 C5.53839608,20.6651561 6.14734339,23.8391618 3.33431579,27.3773976 C4.09854872,27.4773983 5.09286455,27.5717079 6.11644886,27.5717079 C8.14817024,27.5717079 9.61484705,27.2066648 10.3595677,26.5147901 C10.5140403,26.3716996 10.7124156,26.2969024 10.91323,26.2969024 M16.8108318,29.3050533 C14.7896796,29.3050533 12.8441377,28.8871642 11.0221739,28.0619552 C9.92948337,28.816432 8.28394353,29.1977354 6.11726188,29.1977354 L6.11644886,29.1977354 C3.78147336,29.1977354 1.66032047,28.757082 1.57170197,28.7383827 C1.27901702,28.6774066 1.04405605,28.460332 0.959502617,28.1741511 C0.874136173,27.8879703 0.952998507,27.5790251 1.16438208,27.3676415 C4.23025695,24.3017666 3.99936105,21.4383322 3.92700282,20.9204424 C3.11073701,19.0944135 2.69772602,17.1439935 2.69772602,15.1236543 C2.69772602,7.30408804 9.02866413,0.941442396 16.8108318,0.941442396 C24.5929995,0.941442396 30.9239376,7.30408804 30.9239376,15.1236543 C30.9239376,22.9432206 24.5929995,29.3050533 16.8108318,29.3050533" id="Fill-4" fill="#0092F9"></path>
    </g>
</svg>