<?xml version="1.0" encoding="UTF-8"?>
<svg width="54px" height="31px" viewBox="0 0 54 31" version="1.1" xmlns="http://www.w3.org/2000/svg" xmlns:xlink="http://www.w3.org/1999/xlink">
    <!-- Generator: Sketch 43.1 (39012) - http://www.bohemiancoding.com/sketch -->
    <title>Soundcloud</title>
    <desc>Created with Sketch.</desc>
    <defs>
        <polygon id="path-1" points="25.8411234 23.3566014 25.8411234 0.562612195 0.263068126 0.562612195 0.263068126 23.3566014 25.8411234 23.3566014"></polygon>
    </defs>
    <g id="Desktop" stroke="none" stroke-width="1" fill="none" fill-rule="evenodd" opacity="0.4">
        <g id="Transifex---Landing-Next-gen---Version-2a" transform="translate(-278.000000, -598.000000)">
            <g id="Hero">
                <g id="Companies" transform="translate(71.000000, 570.000000)">
                    <g id="Logos" transform="translate(0.000000, 28.000000)">
                        <g id="Soundcloud" transform="translate(207.000000, 0.000000)">
                            <polygon id="Fill-1" fill="#FEFEFE" points="25.1007239 22.9079079 25.101629 22.9061156 25.101629 22.9052195"></polygon>
                            <g id="Group-43" transform="translate(0.000000, 0.193183)">
                                <path d="M23.1122157,17.3492634 L22.7945601,6.12650732 C22.7868501,5.78021463 22.507745,5.50801951 22.1600201,5.50801951 C21.8107532,5.50801951 21.5324191,5.78021463 21.52548,6.12801951 L21.2417489,17.3485073 L21.52548,22.7478 C21.5324191,23.0918244 21.8107532,23.3632634 22.1600201,23.3632634 C22.507745,23.3632634 22.7868501,23.0918244 22.7945601,22.7440195 L22.7945601,22.7485561 L23.1122157,17.3492634 Z" id="Fill-2" fill="#FEFEFE"></path>
                                <path d="M20.85424,17.3480537 L20.5049731,5.70112683 C20.496492,5.37978537 20.2374331,5.12800488 19.9166935,5.12800488 C19.5936409,5.12800488 19.3345821,5.37978537 19.327643,5.70188293 L19.0169265,17.3480537 L19.327643,22.7813707 C19.3345821,23.1004439 19.5936409,23.3537366 19.9166935,23.3537366 C20.2374331,23.3537366 20.496492,23.1004439 20.5049731,22.7783463 L20.5049731,22.7828829 L20.85424,17.3480537 Z" id="Fill-4" fill="#FEFEFE"></path>
                                <path d="M24.9993552,22.711863 L24.9993552,22.7100707 L24.9993552,22.7109668 L24.9993552,22.7127591 L24.9993552,22.711863 Z" id="Fill-6" fill="#FEFEFE"></path>
                                <polygon id="Fill-8" fill="#FEFEFE" points="24.9992781 22.7125659 24.9992781 22.713462 24.9992781 22.7143581"></polygon>
                                <polygon id="Fill-10" fill="#FEFEFE" points="15.8761649 22.8643146 15.8761649 22.8643146 15.8761649 22.8678991"></polygon>
                                <path d="M15.9779962,5.78490244 C15.9672021,5.51346341 15.7490067,5.301 15.4806957,5.301 C15.2108427,5.301 14.9926473,5.51346341 14.9833952,5.78490244 C14.9833952,5.78565854 14.6187081,17.3463902 14.6187081,17.3463902 L14.9833952,22.8666585 C14.9926473,23.1350732 15.2108427,23.3482927 15.4806957,23.3482927 C15.7482357,23.3482927 15.9672021,23.1358293 15.9779962,22.8643902 L16.3897148,17.3463902 L15.9779962,5.78490244 Z" id="Fill-12" fill="#FEFEFE"></path>
                                <path d="M18.1309024,22.830139 L18.1309024,22.830139 L18.1309024,22.8337235 L18.1309024,22.830139 Z" id="Fill-14" fill="#FEFEFE"></path>
                                <path d="M18.2327337,5.39596585 C18.2234816,5.09881951 17.9844689,4.86669756 17.6899437,4.86669756 C17.3938764,4.86669756 17.1556347,5.09957561 17.1463826,5.39596585 L16.8086809,17.3468439 L17.1471536,22.8330878 C17.1556347,23.1264537 17.3938764,23.3585756 17.6899437,23.3585756 C17.9844689,23.3585756 18.2227106,23.1264537 18.2327337,22.8308195 L18.6136119,17.3476 L18.2327337,5.39596585 Z" id="Fill-16" fill="#FEFEFE"></path>
                                <path d="M6.81702653,23.2109098 C6.98125135,23.2109098 7.11617785,23.080861 7.13082702,22.9084707 L7.66821999,17.3413244 L7.13082702,11.5859098 C7.11617785,11.4142756 6.98125135,11.2842268 6.81702653,11.2842268 C6.65125968,11.2842268 6.51556217,11.4142756 6.50245503,11.5866659 L6.02982677,17.3413244 L6.50245503,22.9084707 C6.51556217,23.080861 6.65125968,23.2109098 6.81702653,23.2109098" id="Fill-18" fill="#FEFEFE"></path>
                                <path d="M25.3876933,17.3502463 L25.1008781,3.99680732 C25.0970231,3.76770976 24.9767457,3.56583171 24.7963297,3.44636829 C24.6883885,3.37453902 24.5588591,3.33219756 24.4208485,3.33219756 C24.286693,3.33219756 24.1602476,3.37227073 24.0546195,3.44031951 C23.8695774,3.55902683 23.744674,3.76392927 23.740819,3.99756341 L23.7385059,4.12307561 L23.4840731,17.3457098 C23.4840731,17.3540268 23.740819,22.7140024 23.740819,22.7140024 C23.740819,22.7215634 23.74159,22.7291244 23.742361,22.7366854 C23.7500711,22.8863927 23.8078967,23.0240024 23.9004177,23.1328805 C24.0260921,23.2803195 24.2134472,23.3748317 24.4208485,23.3748317 C24.6051196,23.3748317 24.7739705,23.299978 24.8965608,23.1797585 C25.0199222,23.059539 25.0977941,22.8939537 25.1008781,22.710978 L25.1294054,22.1801976 L25.3876933,17.3502463 Z" id="Fill-20" fill="#FEFEFE"></path>
                                <path d="M9.31686763,12.001839 C9.30298948,11.8052537 9.14801675,11.6555463 8.95680663,11.6555463 C8.76328347,11.6555463 8.60908176,11.8052537 8.59674562,12.0041073 L8.15033166,17.3421561 L8.59674562,22.9546683 C8.60908176,23.1527659 8.76328347,23.3024732 8.95680663,23.3024732 C9.14801675,23.3024732 9.30298948,23.1527659 9.31686763,22.9546683 L9.82264926,17.3421561 L9.31686763,12.001839 Z" id="Fill-22" fill="#FEFEFE"></path>
                                <path d="M11.1144741,8.26558293 C10.8978207,8.26558293 10.7197177,8.43872927 10.7089236,8.65950976 L10.2894949,17.3440463 L10.7089236,22.9565585 C10.7197177,23.1758268 10.8978207,23.3489732 11.1144741,23.3489732 C11.3288145,23.3489732 11.5076885,23.1758268 11.5200246,22.9550463 L11.5200246,22.9573146 L11.9941949,17.3440463 L11.5200246,8.65875366 C11.5076885,8.43872927 11.3288145,8.26558293 11.1144741,8.26558293" id="Fill-24" fill="#FEFEFE"></path>
                                <path d="M13.7069905,22.9499049 L13.7069905,22.9529293 L14.1503204,17.3744415 L13.7069905,6.70363659 C13.6954253,6.45714878 13.4972761,6.2651 13.2559504,6.2651 C13.0123117,6.2651 12.8141625,6.45714878 12.8033684,6.70363659 C12.8033684,6.70439268 12.4116961,17.3744415 12.4116961,17.3744415 L12.8041394,22.9521732 C12.8141625,23.1963927 13.0123117,23.3884415 13.2559504,23.3884415 C13.4972761,23.3884415 13.6954253,23.1963927 13.7069905,22.9499049" id="Fill-26" fill="#FEFEFE"></path>
                                <path d="M9.21519051,22.9542902 L9.21519051,22.9542902 L9.21519051,22.9551864 L9.21519051,22.9542902 Z" id="Fill-28" fill="#FEFEFE"></path>
                                <path d="M27.0413525,2.17982927 C26.9326403,2.11556098 26.8069659,2.0777561 26.6720394,2.0777561 C26.4993335,2.0777561 26.3389637,2.1382439 26.2140603,2.24031707 C26.0529195,2.37036585 25.9488333,2.56770732 25.9457493,2.78773171 L25.9442073,2.86107317 L25.64814,17.3516829 L25.7992577,20.0297805 L25.9457493,22.6368049 C25.9511464,23.0224146 26.276512,23.3414878 26.6720394,23.3414878 C27.0660248,23.3414878 27.3921614,23.0224146 27.3975584,22.6315122 L27.3975584,22.637561 L27.3975584,22.637561 L27.720611,17.3516829 L27.720611,17.3516829 L27.3975584,2.78697561 C27.3937034,2.52914634 27.2510668,2.30382927 27.0413525,2.17982927" id="Fill-30" fill="#FEFEFE"></path>
                                <path d="M0.606783749,20.4144829 C0.715495958,20.4144829 0.803390936,20.3305561 0.821124133,20.2103366 L1.2852713,17.3401902 L0.821124133,14.4193854 C0.803390936,14.2991659 0.715495958,14.215239 0.606783749,14.215239 C0.494987506,14.215239 0.406321519,14.299922 0.391672357,14.4208976 L0,17.3401902 L0.391672357,20.2088244 C0.406321519,20.3298 0.494987506,20.4144829 0.606783749,20.4144829" id="Fill-32" fill="#FEFEFE"></path>
                                <path d="M2.58842999,22.1687805 C2.70176825,22.1687805 2.79274726,22.0818293 2.81048046,21.9570732 L3.41032513,17.3395854 L2.81125147,12.6192683 C2.79274726,12.4945122 2.70176825,12.407561 2.58842999,12.407561 C2.47432072,12.407561 2.38102868,12.4967805 2.36560851,12.6200244 L1.83823865,17.3395854 L2.36560851,21.955561 C2.38102868,22.079561 2.47432072,22.1687805 2.58842999,22.1687805" id="Fill-34" fill="#FEFEFE"></path>
                                <path d="M4.69405441,22.9945902 C4.83283596,22.9945902 4.94540321,22.8864683 4.9623654,22.7375171 L5.53059872,17.3404927 L4.9623654,11.739322 C4.94540321,11.5903707 4.83283596,11.4822488 4.69405441,11.4822488 C4.55218883,11.4822488 4.43962158,11.5903707 4.42497242,11.740078 L3.92535886,17.3404927 L4.42497242,22.7360049 C4.43962158,22.8864683 4.55218883,22.9945902 4.69405441,22.9945902" id="Fill-36" fill="#FEFEFE"></path>
                                <g id="Group-40" transform="translate(27.756309, 0.000000)">
                                    <mask id="mask-2" fill="white">
                                        <use xlink:href="#path-1"></use>
                                    </mask>
                                    <g id="Clip-39"></g>
                                    <path d="M19.2491543,10.457661 C18.3455323,10.457661 17.4843157,10.6376122 16.6994289,10.9597098 C16.1743721,5.13322195 11.1921147,0.562612195 5.11502509,0.562612195 C3.62774955,0.562612195 2.17825343,0.849929268 0.897608184,1.3353439 C0.400307653,1.52436829 0.267694178,1.71792927 0.263068126,2.09522195 L0.263068126,22.6141976 C0.268465186,23.0096366 0.581494668,23.3173683 0.97548005,23.3559293 C0.992442239,23.3574415 19.2491543,23.3559293 19.2491543,23.3559293 C22.8898568,23.3559293 25.8412776,20.4941 25.8412776,16.9230512 C25.8412776,13.3520024 22.8898568,10.457661 19.2491543,10.457661" id="Fill-38" fill="#FEFEFE" mask="url(#mask-2)"></path>
                                </g>
                                <path d="M47.9950525,29.2404098 L47.5154852,29.2404098 L47.5154852,26.3180927 L48.0305189,26.3180927 C49.0605864,26.3180927 49.4854121,26.8019951 49.4854121,27.7788732 C49.4854121,28.653678 49.0197229,29.2404098 47.9950525,29.2404098 L47.9950525,29.2404098 Z M48.0659853,25.3888488 L46.5409304,25.3888488 L46.5409304,30.1688976 L47.9950525,30.1688976 C49.2502545,30.1688976 50.4884943,29.4581659 50.4884943,27.7788732 C50.4884943,26.0307756 49.4591978,25.3888488 48.0659853,25.3888488 L48.0659853,25.3888488 Z M44.34664,28.0729951 C44.34664,28.8374098 43.9649907,29.3092146 43.3450998,29.3092146 C42.7244379,29.3092146 42.3489567,28.8238 42.3489567,28.0593854 L42.3489567,25.3888488 L41.3736309,25.3888488 L41.3736309,28.0729951 C41.3736309,29.4657268 42.1677697,30.2437512 43.3450998,30.2437512 C44.5841106,30.2437512 45.3227368,29.4445561 45.3227368,28.0593854 L45.3227368,25.3888488 L44.34664,25.3888488 L44.34664,28.0729951 Z M38.2957647,29.2948488 C37.5085649,29.2948488 37.1816573,28.6325073 37.1816573,27.7788732 C37.1816573,26.925239 37.5085649,26.2636537 38.2957647,26.2636537 C39.0821934,26.2636537 39.409101,26.925239 39.409101,27.7788732 C39.409101,28.6325073 39.0821934,29.2948488 38.2957647,29.2948488 L38.2957647,29.2948488 Z M38.2957647,25.3139951 C36.9657749,25.3139951 36.1793461,26.3241415 36.1793461,27.7788732 C36.1793461,29.234361 36.9657749,30.2437512 38.2957647,30.2437512 C39.6257545,30.2437512 40.4129542,29.234361 40.4129542,27.7788732 C40.4129542,26.3241415 39.6257545,25.3139951 38.2957647,25.3139951 L38.2957647,25.3139951 Z M33.7730284,25.3888488 L32.7977025,25.3888488 L32.7977025,30.1688976 L35.7290771,30.1688976 L35.7290771,29.2268 L33.7730284,29.2268 L33.7730284,25.3888488 Z M30.1577691,26.2636537 C30.595702,26.2636537 30.8748071,26.4541902 31.0490551,26.7823366 L31.9534481,26.3717756 C31.6473577,25.7510195 31.0899185,25.3139951 30.1708763,25.3139951 C28.8971701,25.3139951 28.0058842,26.3241415 28.0058842,27.7788732 C28.0058842,29.2880439 28.8609327,30.2437512 30.1361809,30.2437512 C31.0212987,30.2437512 31.6057232,29.8407512 31.940341,29.1648 L31.1184458,28.6861902 C30.860929,29.110361 30.6026411,29.2948488 30.1639372,29.2948488 C29.4330211,29.2948488 29.0074243,28.6385561 29.0074243,27.7788732 C29.0074243,26.8919707 29.426853,26.2636537 30.1577691,26.2636537 L30.1577691,26.2636537 Z M24.6496839,29.2404098 L24.1685745,29.2404098 L24.1685745,26.3180927 L24.6843793,26.3180927 C25.7152177,26.3180927 26.1400435,26.8019951 26.1400435,27.7788732 C26.1400435,28.653678 25.6728123,29.2404098 24.6496839,29.2404098 L24.6496839,29.2404098 Z M24.7183036,25.3888488 L23.1947907,25.3888488 L23.1947907,30.1688976 L24.6496839,30.1688976 C25.9025728,30.1688976 27.1423546,29.4581659 27.1423546,27.7788732 C27.1423546,26.0307756 26.1115161,25.3888488 24.7183036,25.3888488 L24.7183036,25.3888488 Z M20.9804541,27.4106537 C20.9804541,27.6768 20.9935612,28.2771415 20.9935612,28.4555805 C20.9311095,28.3323366 20.7707397,28.0926537 20.6527754,27.9149707 L18.9249452,25.3888488 L17.9927958,25.3888488 L17.9927958,30.1688976 L18.9534725,30.1688976 L18.9534725,28.0654341 C18.9534725,27.7992878 18.9395944,27.1989463 18.9395944,27.0205073 C19.0028171,27.1437512 19.1624158,27.382678 19.2803802,27.5611171 L21.0698911,30.1688976 L21.9411308,30.1688976 L21.9411308,25.3888488 L20.9804541,25.3888488 L20.9804541,27.4106537 Z M15.7992764,28.0729951 C15.7992764,28.8374098 15.4160852,29.3092146 14.7969653,29.3092146 C14.1770744,29.3092146 13.8008222,28.8238 13.8008222,28.0593854 L13.8008222,25.3888488 L12.8262674,25.3888488 L12.8262674,28.0729951 C12.8262674,29.4657268 13.6204062,30.2437512 14.7969653,30.2437512 C16.0359761,30.2437512 16.7738313,29.4445561 16.7738313,28.0593854 L16.7738313,25.3888488 L15.7992764,25.3888488 L15.7992764,28.0729951 Z M9.74917214,29.2948488 C8.96197238,29.2948488 8.63429374,28.6325073 8.63429374,27.7788732 C8.63429374,26.925239 8.96197238,26.2636537 9.74917214,26.2636537 C10.5356009,26.2636537 10.8625085,26.925239 10.8625085,27.7788732 C10.8625085,28.6325073 10.5356009,29.2948488 9.74917214,29.2948488 L9.74917214,29.2948488 Z M9.74917214,25.3139951 C8.41918235,25.3139951 7.63198259,26.3241415 7.63198259,27.7788732 C7.63198259,29.234361 8.41918235,30.2437512 9.74917214,30.2437512 C11.0783909,30.2437512 11.8655907,29.234361 11.8655907,27.7788732 C11.8655907,26.3241415 11.0783909,25.3139951 9.74917214,25.3139951 L9.74917214,25.3139951 Z M5.26344425,27.2458244 C4.49012264,27.0681415 4.28195033,26.9728732 4.28195033,26.6727024 C4.28195033,26.4609951 4.45542726,26.2424829 4.97740006,26.2424829 C5.42381403,26.2424829 5.7715389,26.4201659 6.08456838,26.7339463 L6.78849921,26.0648 C6.3289781,25.5945073 5.7715389,25.3139951 5.01286646,25.3139951 C4.05141876,25.3139951 3.27192909,25.8470439 3.27192909,26.7142878 C3.27192909,27.6556293 3.89875907,27.9361415 4.79698406,28.1402878 C5.71602628,28.3451902 5.88333514,28.4828 5.88333514,28.7897756 C5.88333514,29.1519463 5.61116911,29.3092146 5.03368369,29.3092146 C4.5672235,29.3092146 4.12851962,29.1519463 3.78696282,28.7618 L3.083803,29.3765073 C3.45311611,29.9095561 4.16321501,30.2437512 4.97740006,30.2437512 C6.30738986,30.2437512 6.89258537,29.6298 6.89258537,28.7209707 C6.89258537,27.6828488 6.03676585,27.4235073 5.26344425,27.2458244 L5.26344425,27.2458244 Z" id="Fill-41" fill="#FEFEFE"></path>
                            </g>
                        </g>
                    </g>
                </g>
            </g>
        </g>
    </g>
</svg>