<?xml version="1.0" encoding="UTF-8"?>
<svg width="95px" height="21px" viewBox="0 0 95 21" version="1.1" xmlns="http://www.w3.org/2000/svg" xmlns:xlink="http://www.w3.org/1999/xlink">
    <!-- Generator: Sketch 43.1 (39012) - http://www.bohemiancoding.com/sketch -->
    <title>Atlassian</title>
    <desc>Created with Sketch.</desc>
    <defs>
        <polygon id="path-1" points="0.33101829 15.7837048 13.4361412 15.7837048 13.4361412 0.519382536 0.33101829 0.519382536"></polygon>
        <polygon id="path-3" points="0.59826956 15.7837048 3.71883429 15.7837048 3.71883429 0.519185239 0.59826956 0.519185239 0.59826956 15.7837048"></polygon>
        <polygon id="path-5" points="0.216523055 15.7837048 15.1940723 15.7837048 15.1940723 0.519185239 0.216523055 0.519185239 0.216523055 15.7837048"></polygon>
        <polygon id="path-7" points="0.77655989 5.91888929 5.14532079 5.91888929 5.14532079 0.831012057 0.77655989 0.831012057 0.77655989 5.91888929"></polygon>
    </defs>
    <g id="Desktop" stroke="none" stroke-width="1" fill="none" fill-rule="evenodd" opacity="0.4">
        <g id="Transifex---Landing-Next-gen---Version-2a" transform="translate(-455.000000, -604.000000)">
            <g id="Hero">
                <g id="Companies" transform="translate(71.000000, 570.000000)">
                    <g id="Logos" transform="translate(0.000000, 28.000000)">
                        <g id="Atlassian" transform="translate(384.000000, 6.000000)">
                            <g id="Group-3" transform="translate(18.390425, 4.568988)">
                                <mask id="mask-2" fill="white">
                                    <use xlink:href="#path-1"></use>
                                </mask>
                                <g id="Clip-2"></g>
                                <path d="M8.93242296,0.77685422 C8.87047627,0.583503836 8.74755079,0.519382536 8.56267863,0.519382536 L5.10721458,0.519382536 C4.92234241,0.519382536 4.79844902,0.647625137 4.73747025,0.77685422 L0.356677451,15.2682682 C0.294730757,15.3974973 0.356677451,15.5257399 0.418624146,15.5908476 C0.479602923,15.7190902 0.603496312,15.7190902 0.726421784,15.7190902 L3.1326637,15.7190902 C3.31850378,15.7190902 3.44142925,15.5908476 3.50337594,15.4616186 L6.52618105,4.77013153 C6.52618105,4.77013153 6.58812774,4.51265985 6.8968933,4.51265985 C7.20469094,4.51265985 7.26663763,4.77013153 7.26663763,4.77013153 L8.6856041,9.85840336 L6.8349466,9.85840336 C6.65007444,9.85840336 6.52618105,9.98664596 6.46423435,10.115875 L5.84767116,12.2417428 C5.78572447,12.3699854 5.84767116,12.4992145 5.90961786,12.5633358 C5.97059663,12.6925649 6.09449002,12.6925649 6.21741549,12.6925649 L9.42606068,12.6925649 L10.2894427,15.5257399 C10.3513894,15.7190902 10.4752828,15.784198 10.660155,15.784198 L13.0663969,15.784198 C13.1893224,15.784198 13.3132158,15.7190902 13.3741945,15.6549689 C13.4361412,15.5257399 13.4361412,15.3974973 13.4361412,15.3323895 L8.93242296,0.77685422 Z" id="Fill-1" fill="#FEFEFE" mask="url(#mask-2)"></path>
                            </g>
                            <path d="M37.8849528,17.8929996 C37.8849528,17.7637706 37.8239741,17.6986628 37.7029844,17.6345415 C37.6420057,17.5694337 37.5200481,17.5694337 37.3990585,17.5694337 C37.0341537,17.6986628 36.6702169,17.6986628 36.3662909,17.6986628 C35.8194178,17.6986628 35.5764706,17.4402046 35.5764706,16.9223018 L35.5764706,11.3555864 L37.7029844,11.3555864 C37.8849528,11.3555864 38.0669213,11.1612495 38.0669213,10.9669127 L38.0669213,9.21985385 C38.0669213,9.02551699 37.8849528,8.83118012 37.7029844,8.83118012 L35.5764706,8.83118012 L35.5764706,6.11243697 C35.5764706,5.98320789 35.5154918,5.91810011 35.4554809,5.78887103 C35.4554809,5.72376324 35.3335234,5.72376324 35.2115658,5.72376324 L33.0250411,6.04732919 C32.8430727,6.04732919 32.7211151,6.24166606 32.7211151,6.43600292 L32.7211151,8.83118012 L31.5673579,8.83118012 C31.3844216,8.83118012 31.2024532,9.02551699 31.2024532,9.21985385 L31.2024532,10.9027914 C31.2024532,11.0961418 31.3844216,11.2904786 31.5673579,11.2904786 L32.7211151,11.2904786 L32.7211151,17.2458677 C32.7211151,19.317479 33.7538827,20.3522981 35.6984281,20.3522981 C36.2443334,20.3522981 37.21709,20.2230691 37.8239741,19.9646109 C38.0069104,19.8995031 38.0669213,19.7051662 38.0669213,19.5108294 L37.8849528,17.8929996 Z" id="Fill-4" fill="#FEFEFE"></path>
                            <g id="Group-8" transform="translate(38.716684, 4.568988)">
                                <mask id="mask-4" fill="white">
                                    <use xlink:href="#path-3"></use>
                                </mask>
                                <g id="Clip-7"></g>
                                <path d="M3.3287637,0.519185239 L0.988340151,0.519185239 C0.793788814,0.519185239 0.59826956,0.709576178 0.59826956,0.898980636 L0.59826956,15.4032189 C0.59826956,15.5936098 0.793788814,15.7840007 0.988340151,15.7840007 L3.3287637,15.7840007 C3.52331504,15.7840007 3.71883429,15.5936098 3.71883429,15.4032189 L3.71883429,0.898980636 C3.71883429,0.645454878 3.52331504,0.519185239 3.3287637,0.519185239" id="Fill-6" fill="#FEFEFE" mask="url(#mask-4)"></path>
                            </g>
                            <path d="M49.3000832,15.9005042 L49.3000832,17.2825649 C48.951633,17.4798612 48.3128077,17.8083595 47.6168753,17.8083595 C46.97805,17.8083595 46.803825,17.6110632 46.803825,16.8869858 C46.803825,16.1638948 46.919975,15.9665985 47.6749504,15.9665985 L49.3000832,15.9665985 L49.3000832,15.9005042 Z M47.7688383,8.90437706 C46.6373432,8.90437706 45.2551576,9.09279503 44.2494917,9.34434783 C44.0607479,9.40748265 43.9349187,9.59590062 43.9978333,9.78530508 L44.2494917,11.419905 C44.2494917,11.5461746 44.3124064,11.6093095 44.4382356,11.6724443 C44.5011502,11.7345926 44.6260115,11.7345926 44.7518407,11.7345926 C45.694592,11.5461746 46.6373432,11.4830398 47.4552332,11.4830398 C49.0890772,11.4830398 49.3407357,11.7977274 49.3407357,12.9302083 L49.3407357,13.8732846 L46.9519163,13.8732846 C44.6889261,13.8732846 43.6832602,14.8173475 43.6832602,17.0191743 C43.6832602,19.1578663 44.7518407,20.3524954 46.6373432,20.3524954 C47.7059237,20.3524954 48.7745042,20.0378078 49.7172554,19.4715674 L49.8430847,19.8493898 C49.9059993,20.0378078 50.0318285,20.1009426 50.2205723,20.1009426 L52.0431602,20.1009426 C52.2319041,20.1009426 52.4206479,19.9125247 52.4206479,19.7241067 L52.4206479,12.9302083 C52.2948187,9.97372305 51.100409,8.90437706 47.7688383,8.90437706 L47.7688383,8.90437706 Z" id="Fill-9" fill="#FEFEFE"></path>
                            <path d="M57.9596503,13.2834673 C56.6345718,12.9086043 56.6345718,12.9086043 56.6345718,12.1578919 C56.6345718,11.6567592 56.6945827,11.4071794 57.7786498,11.4071794 C58.5016839,11.4071794 59.6457619,11.5314761 60.368796,11.6567592 C60.4888177,11.6567592 60.5488285,11.6567592 60.6698182,11.5946109 C60.729829,11.5314761 60.7898399,11.4693277 60.7898399,11.3440446 L60.9708404,9.65518816 C60.9708404,9.46775667 60.8498508,9.27933869 60.6698182,9.21719035 C59.8267624,9.02975886 58.6826844,8.9044757 57.7786498,8.9044757 C54.4674054,8.9044757 53.8043822,10.2184691 53.8043822,12.1578919 C53.8043822,14.2847461 54.1654153,15.0354585 56.6945827,15.6608878 C58.3816622,16.0988856 58.3816622,16.4116003 58.3816622,16.9117464 C58.3816622,17.6003106 58.3206834,17.7877421 57.2366162,17.7877421 C56.3335496,17.7877421 55.3704721,17.6624589 54.4674054,17.4128791 C54.3464158,17.4128791 54.2864049,17.4128791 54.1654153,17.4750274 C54.1054044,17.5371757 54.0453935,17.6003106 53.9853827,17.7255937 L53.6843605,19.3513153 C53.6243496,19.5397333 53.7443713,19.7271648 53.9253718,19.7893131 C54.8884493,20.1020278 56.2735387,20.3525941 57.297595,20.3525941 C60.4888177,20.3525941 61.150873,18.9764523 61.150873,16.8495981 C61.2118518,14.4721776 60.8498508,14.0963281 57.9596503,13.2834673" id="Fill-11" fill="#FEFEFE"></path>
                            <path d="M66.0726346,13.2834673 C64.7475561,12.9086043 64.7475561,12.9086043 64.7475561,12.1578919 C64.7475561,11.6567592 64.807567,11.4071794 65.8916341,11.4071794 C66.6146682,11.4071794 67.7587462,11.5314761 68.4817803,11.6567592 C68.601802,11.6567592 68.6618129,11.6567592 68.7828025,11.5946109 C68.8428134,11.5314761 68.9028242,11.4693277 68.9028242,11.3440446 L69.0838247,9.65518816 C69.0838247,9.46775667 68.963803,9.27933869 68.7828025,9.21719035 C67.9397467,9.02975886 66.7956687,8.9044757 65.8916341,8.9044757 C62.5794218,8.9044757 61.9173665,10.2184691 61.9173665,12.1578919 C61.9173665,14.2847461 62.2783996,15.0354585 64.807567,15.6608878 C66.4946465,16.0988856 66.4946465,16.4116003 66.4946465,16.9117464 C66.4946465,17.6003106 66.4336677,17.7877421 65.3496006,17.7877421 C64.4465339,17.7877421 63.4834564,17.6624589 62.5794218,17.4128791 C62.4594001,17.4128791 62.3993892,17.4128791 62.2783996,17.4750274 C62.2183888,17.5371757 62.1583779,17.6003106 62.098367,17.7255937 L61.7963769,19.3513153 C61.736366,19.5397333 61.8573557,19.7271648 62.0373883,19.7893131 C63.0014337,20.1020278 64.3865231,20.3525941 65.4105793,20.3525941 C68.601802,20.3525941 69.2648252,18.9764523 69.2648252,16.8495981 C69.3248361,14.4721776 68.9028242,14.0963281 66.0726346,13.2834673" id="Fill-13" fill="#FEFEFE"></path>
                            <path d="M81.1267461,15.9005042 L81.1267461,17.2825649 C80.7782959,17.4798612 80.1394707,17.8083595 79.4435383,17.8083595 C78.804713,17.8083595 78.6304879,17.6110632 78.6304879,16.8869858 C78.6304879,16.1638948 78.7466379,15.9665985 79.5016133,15.9665985 L81.1267461,15.9665985 L81.1267461,15.9005042 Z M79.5955012,8.90437706 C78.4640062,8.90437706 77.0818205,9.09279503 76.0761547,9.34434783 C75.8874108,9.40748265 75.7615816,9.59590062 75.8244962,9.78530508 L76.0761547,11.419905 C76.0761547,11.5461746 76.1390693,11.6093095 76.2648985,11.6724443 C76.3278131,11.7345926 76.4526744,11.7345926 76.5785036,11.7345926 C77.5212549,11.5461746 78.4640062,11.4830398 79.2818961,11.4830398 C80.9157402,11.4830398 81.1673986,11.7977274 81.1673986,12.9302083 L81.1673986,13.8732846 L78.7785792,13.8732846 C76.515589,13.8732846 75.5099232,14.8173475 75.5099232,17.0191743 C75.5099232,19.1578663 76.5785036,20.3524954 78.4640062,20.3524954 C79.5325866,20.3524954 80.6011671,20.0378078 81.5439184,19.4715674 L81.6697476,19.8493898 C81.7326622,20.0378078 81.8584914,20.1009426 82.0472353,20.1009426 L83.8698232,20.1009426 C84.058567,20.1009426 84.2473108,19.9125247 84.2473108,19.7241067 L84.2473108,12.9302083 C84.058567,9.97372305 82.8641573,8.90437706 79.5955012,8.90437706 L79.5955012,8.90437706 Z" id="Fill-15" fill="#FEFEFE"></path>
                            <path d="M92.217237,8.90427841 C91.0237952,8.90427841 89.3899512,9.35214103 88.0706802,9.99138107 L87.8819363,9.41626233 C87.8199896,9.22389843 87.6941604,9.15977713 87.5054166,9.15977713 L85.8715725,9.15977713 C85.6837966,9.15977713 85.4950528,9.35214103 85.4950528,9.54351845 L85.4950528,19.9686555 C85.4950528,20.1610194 85.6837966,20.3523968 85.8715725,20.3523968 L88.1335948,20.3523968 C88.3223386,20.3523968 88.5110824,20.1610194 88.5110824,19.9686555 L88.5110824,12.7416916 C89.3270366,12.293829 90.4585317,11.9100877 91.1496245,11.9100877 C91.6519734,11.9100877 91.8407173,12.1024516 91.8407173,12.613449 L91.8407173,19.9686555 C91.8407173,20.1610194 92.0284932,20.3523968 92.217237,20.3523968 L94.4792593,20.3523968 C94.6670352,20.3523968 94.855779,20.1610194 94.855779,19.9686555 L94.855779,12.293829 C94.7928644,10.0555024 93.9130278,8.90427841 92.217237,8.90427841" id="Fill-17" fill="#FEFEFE"></path>
                            <path d="M21.7085415,0.250862258 C21.5836802,0.125579101 21.4588189,0.0624442821 21.2720109,0.0624442821 C21.2100642,0.0624442821 21.0852029,0.0624442821 21.0232562,0.125579101 C18.0314245,1.7562331 14.5411154,2.6332152 10.925945,2.6332152 C7.31174257,2.6332152 3.8214335,1.7562331 0.767655052,0.0624442821 C0.704740441,0.000295944465 0.642793746,0.000295944465 0.51793244,0.000295944465 C0.33112444,0.000295944465 0.206263134,0.0624442821 0.0814018281,0.187727439 C-0.0424915607,0.376145415 -0.0424915607,0.689846547 0.206263134,0.878264523 C1.70266297,2.00679942 3.38490289,2.88476799 5.19297203,3.51118378 C7.06201996,4.13858604 8.99398249,4.45228718 10.925945,4.45228718 C12.8588755,4.45228718 14.790838,4.13858604 16.6598859,3.51118378 C18.4679551,2.88476799 20.0882483,2.00679942 21.6465948,0.878264523 C21.8953495,0.752981366 21.8953495,0.439280234 21.7085415,0.250862258" id="Fill-19" fill="#FEFEFE"></path>
                            <g id="Group-23" transform="translate(2.903751, 4.568988)">
                                <mask id="mask-6" fill="white">
                                    <use xlink:href="#path-5"></use>
                                </mask>
                                <g id="Clip-22"></g>
                                <path d="M15.0072643,0.582320058 C14.9453176,0.519185239 14.8204563,0.519185239 14.7585096,0.519185239 L14.6346162,0.519185239 C13.7644587,0.834859335 12.8943012,1.08739861 12.0860905,1.33895141 C11.9002504,1.40208623 11.7753891,1.52835586 11.7134424,1.6546255 C11.0920396,3.29415784 9.60047934,4.87154183 8.0469724,6.51107417 C7.9850257,6.57420899 7.92211109,6.63734381 7.73627101,6.63734381 C7.6114097,6.63734381 7.48751631,6.57420899 7.42556962,6.51107417 C5.80914806,4.87154183 4.31855573,3.29415784 3.75909964,1.6546255 C3.69618503,1.52835586 3.57229164,1.40208623 3.38548364,1.33895141 C2.57824078,1.14954695 1.70808331,0.897994154 0.775979139,0.519185239 L0.651117833,0.519185239 C0.589171139,0.519185239 0.46527775,0.519185239 0.403331056,0.582320058 C0.27846975,0.645454878 0.216523055,0.834859335 0.216523055,0.961128973 C0.340416444,2.34812203 0.899872528,3.67296675 1.8319767,5.06094629 C2.76408086,6.38579101 3.88299303,7.58337961 5.06385189,8.78195469 C7.17681492,10.9265656 9.16588456,13.0080417 9.28977795,15.4051918 C9.28977795,15.5945963 9.47658595,15.7840007 9.72437273,15.7840007 L12.2109518,15.7840007 C12.3348452,15.7840007 12.3967918,15.7208659 12.5216532,15.6577311 C12.5835998,15.5945963 12.6455465,15.4683266 12.6455465,15.342057 C12.5835998,13.7656595 11.9621971,12.1882755 10.8432849,10.4856083 C10.5945302,10.1067994 10.3467434,9.79112532 10.0979887,9.47643771 C9.97312743,9.35016807 10.036042,9.16076361 10.0979887,9.09762879 C10.1599354,9.03449397 10.2838288,8.90822433 10.3467434,8.84508951 C11.4646877,7.64651443 12.6455465,6.44892583 13.5776507,5.12408111 C14.5097549,3.73610157 15.069211,2.41125685 15.1940723,1.02426379 C15.1940723,0.771724516 15.1311577,0.645454878 15.0072643,0.582320058" id="Fill-21" fill="#FEFEFE" mask="url(#mask-6)"></path>
                            </g>
                            <g id="Group-26" transform="translate(4.839586, 14.433803)">
                                <mask id="mask-8" fill="white">
                                    <use xlink:href="#path-7"></use>
                                </mask>
                                <g id="Clip-25"></g>
                                <path d="M3.2224864,0.953335769 C3.15666804,0.892173913 3.08988176,0.831012057 2.89242667,0.831012057 C2.69400367,0.831012057 2.56139902,0.953335769 2.56139902,1.01449763 C1.43764727,2.54748995 0.909164532,4.01833394 0.77655989,5.49016441 C0.77655989,5.61248813 0.84334617,5.73481184 0.909164532,5.79597369 C0.974982895,5.85713555 1.10758754,5.91928389 1.23922426,5.91928389 L3.88357378,5.91928389 C4.08199679,5.91928389 4.28041979,5.73481184 4.34623816,5.55132627 C4.41205652,4.81541103 4.61047952,4.14065765 5.0731439,3.4057289 C5.20574854,3.16009499 5.13896226,2.91544757 5.00732554,2.79213738 C4.54466116,2.24069419 4.01521051,1.689251 3.2224864,0.953335769" id="Fill-24" fill="#FEFEFE" mask="url(#mask-8)"></path>
                            </g>
                            <path d="M10.6088554,6.41804896 C11.4112587,6.41804896 11.9465168,6.35984655 12.0800894,6.35984655 C12.2804482,6.35984655 12.4808071,6.5334673 12.4808071,6.70708805 L12.4808071,6.82250639 C12.3472345,7.05432956 11.8787626,7.97964925 10.9427868,8.78856412 C10.8092142,8.90398246 10.7424279,8.90398246 10.6088554,8.90398246 C10.5420691,8.90398246 10.4084965,8.90398246 10.274924,8.78856412 C9.33894814,7.97964925 8.80368999,7.11154549 8.73690371,6.82250639 L8.73690371,6.70708805 C8.73690371,6.47625137 8.93726255,6.35984655 9.13762139,6.35984655 C9.27119395,6.35984655 9.73966582,6.41804896 10.6088554,6.41804896" id="Fill-27" fill="#FEFEFE"></path>
                            <path d="M73.8721106,4.45218853 L71.5316871,4.45218853 C71.3371358,4.45218853 71.1416165,4.62975521 71.1416165,4.80732189 L71.1416165,6.64119109 C71.1416165,6.81875776 71.3371358,6.99632444 71.5316871,6.99632444 L73.8721106,6.99632444 C74.066662,6.99632444 74.2621812,6.81875776 74.2621812,6.64119109 L74.2621812,4.80732189 C74.2621812,4.57056631 74.066662,4.45218853 73.8721106,4.45218853" id="Fill-29" fill="#FEFEFE"></path>
                            <path d="M73.8721106,8.90427841 L71.5316871,8.90427841 C71.3371358,8.90427841 71.1416165,9.10058824 71.1416165,9.29689806 L71.1416165,19.9597771 C71.1416165,20.156087 71.3371358,20.3523968 71.5316871,20.3523968 L73.8721106,20.3523968 C74.066662,20.3523968 74.2621812,20.156087 74.2621812,19.9597771 L74.2621812,9.29689806 C74.2621812,9.10058824 74.066662,8.90427841 73.8721106,8.90427841" id="Fill-31" fill="#FEFEFE"></path>
                        </g>
                    </g>
                </g>
            </g>
        </g>
    </g>
</svg>