<?xml version="1.0" encoding="UTF-8"?>
<svg width="75px" height="14px" viewBox="0 0 75 14" version="1.1" xmlns="http://www.w3.org/2000/svg" xmlns:xlink="http://www.w3.org/1999/xlink">
    <!-- Generator: Sketch 43.1 (39012) - http://www.bohemiancoding.com/sketch -->
    <title>Disqus</title>
    <desc>Created with Sketch.</desc>
    <defs></defs>
    <g id="Desktop" stroke="none" stroke-width="1" fill="none" fill-rule="evenodd" opacity="0.4">
        <g id="Transifex---Landing-Next-gen---Version-2a" transform="translate(-356.000000, -606.000000)" fill="#FEFEFE">
            <g id="Hero">
                <g id="Companies" transform="translate(71.000000, 570.000000)">
                    <g id="Logos" transform="translate(0.000000, 28.000000)">
                        <g id="Disqus" transform="translate(285.000000, 8.000000)">
                            <path d="M69.9824775,5.46203306 C68.1891246,5.05015183 67.7453826,4.78881446 67.7453826,4.19002204 L67.7453826,4.15196319 C67.7453826,3.68426233 68.1707398,3.31043994 69.0398391,3.31043994 C70.1855459,3.31043994 71.4800024,3.75953426 72.6624788,4.60105751 L74.4558317,2.03842892 C73.0510665,0.897509452 71.3329241,0.298717027 69.1325987,0.298717027 C66.0272402,0.298717027 64.1235785,2.05703546 64.1235785,4.48941825 L64.1235785,4.52663134 C64.1235785,7.2203515 66.249529,8.00605512 69.0030695,8.64206063 C70.7596528,9.05394186 71.1841744,9.35333807 71.1841744,9.89546511 L71.1841744,9.9326782 C71.1841744,10.4942575 70.6668932,10.8308668 69.7050343,10.8308668 C68.2083451,10.8308668 66.7843594,10.287894 65.5091233,9.2594596 L63.5135377,11.6723901 C65.1038222,13.1135515 67.2840914,13.8425898 69.5763408,13.8425898 C72.7184689,13.8425898 74.8076498,12.252576 74.8076498,9.57746235 L74.8076498,9.54024927 C74.8068141,7.09010569 72.9583069,6.11664512 69.9824775,5.46203306 L69.9824775,5.46203306 Z M58.2630082,7.8935701 C58.2630082,9.72716046 57.3203697,10.5872903 55.8779992,10.5872903 C54.4364644,10.5872903 53.4938259,9.68994737 53.4938259,7.79969162 L53.4938259,0.523687062 L49.8528014,0.523687062 L49.8528014,7.87496355 C49.8528014,11.9726321 52.1634355,13.862042 55.8420653,13.862042 C59.5198594,13.862042 61.9048684,12.0098451 61.9048684,7.78193083 L61.9048684,0.523687062 L58.2630082,0.523687062 L58.2630082,7.8935701 Z M44.0482211,7.14592532 C44.0482211,7.59501964 43.9746819,8.02466166 43.8267679,8.41709059 L42.0710203,6.80847027 L40.2592825,8.86618491 L42.0526355,10.4198314 C41.6640478,10.5695295 41.2203058,10.6625622 40.7397942,10.6625622 C38.7625933,10.6625622 37.4313672,8.99812223 37.4313672,7.10871223 L37.4313672,7.07149914 C37.4313672,5.18124339 38.7442085,3.53540998 40.7030246,3.53540998 C42.6994459,3.53540998 44.0490568,5.19984994 44.0490568,7.10871223 L44.0490568,7.14507957 L44.0482211,7.14592532 Z M47.6900813,7.07149914 L47.6900813,7.0334403 C47.6900813,3.27322685 44.7326368,0.261503938 40.7397942,0.261503938 C36.7469516,0.261503938 33.7527374,3.31043994 33.7527374,7.07149914 L33.7527374,7.10871223 C33.7527374,10.8689257 36.710182,13.8806486 40.7030246,13.8806486 C42.181329,13.8806486 43.5309399,13.4501608 44.6398771,12.7202768 L46.0630272,14.0108944 L47.8747649,11.9717863 L46.5443745,10.8317126 C47.2831088,9.7652193 47.6900813,8.45514943 47.6900813,7.07149914 L47.6900813,7.07149914 Z M27.1718175,5.46203306 C25.3793003,5.05015183 24.9355582,4.78881446 24.9355582,4.19002204 L24.9355582,4.15196319 C24.9355582,3.68426233 25.3609155,3.31043994 26.2291791,3.31043994 C27.3748859,3.31043994 28.6693424,3.75953426 29.8526545,4.60105751 L31.6451717,2.03758316 C30.2404065,0.8966637 28.5214284,0.297871275 26.3219387,0.297871275 C23.2165802,0.297871275 21.3120828,2.05618971 21.3120828,4.4885725 L21.3120828,4.52578558 C21.3120828,7.2203515 23.4380333,8.00605512 26.1924095,8.64121488 C27.9481571,9.05309611 28.3735144,9.35249232 28.3735144,9.89461936 L28.3735144,9.9326782 C28.3735144,10.4934118 27.8553975,10.8300211 26.8943743,10.8300211 C25.3976851,10.8300211 23.9736993,10.287894 22.6984633,9.25861385 L20.702042,11.6723901 C22.2923265,13.1127058 24.4734314,13.8434355 26.7656807,13.8434355 C29.9078089,13.8434355 31.9969898,12.2534217 31.9969898,9.57746235 L31.9969898,9.54024927 C31.9969898,7.09010569 30.1476468,6.11664512 27.1718175,5.46203306 L27.1718175,5.46203306 Z M15.2492798,13.6184655 L18.8535347,13.6184655 L18.8535347,0.523687062 L15.2492798,0.523687062 L15.2492798,13.6184655 Z M9.18647668,7.09010569 C9.18647668,9.20279421 7.76332663,10.4012248 5.61899132,10.4012248 L4.15823601,10.4012248 L4.15823601,3.74092772 L5.61899132,3.74092772 C7.76332663,3.74092772 9.18647668,4.95711911 9.18647668,7.05204685 L9.18647668,7.09010569 Z M5.56300127,0.523687062 L0.572365854,0.523687062 L0.572365854,13.6184655 L5.4894621,13.6184655 C10.1474999,13.6184655 12.8651065,10.813106 12.8651065,7.0334403 L12.8651065,6.99622721 C12.8651065,3.21740722 10.1842695,0.523687062 5.56300127,0.523687062 L5.56300127,0.523687062 Z" id="Page-1"></path>
                        </g>
                    </g>
                </g>
            </g>
        </g>
    </g>
</svg>