<?xml version="1.0" encoding="UTF-8" standalone="no"?>
<svg width="21px" height="39px" viewBox="0 0 21 39" version="1.1" xmlns="http://www.w3.org/2000/svg" xmlns:xlink="http://www.w3.org/1999/xlink">
    <!-- Generator: Sketch 3.8.1 (29687) - http://www.bohemiancoding.com/sketch -->
    <title>Page 1</title>
    <desc>Created with Sketch.</desc>
    <defs></defs>
    <g id="Page-1" stroke="none" stroke-width="1" fill="none" fill-rule="evenodd">
        <g id="Icons" transform="translate(-396.000000, -34.000000)">
            <g id="Page-1" transform="translate(396.388016, 34.000000)">
                <path d="M-5.68434189e-14,2.05919881 C-5.68434189e-14,0.921826715 0.9234721,0.000411346147 2.04747545,0.000411346147 L18.5198319,0.000411346147 C19.6510338,0.000411346147 20.5673073,0.921826715 20.5673073,2.05919881 L20.5673073,35.9901141 C20.5673073,37.1274862 19.6438352,38.0499299 18.5198319,38.0499299 L2.04747545,38.0499299 C0.916273542,38.0499299 -5.68434189e-14,37.1274862 -5.68434189e-14,35.9901141 L-5.68434189e-14,2.05919881 Z M1.02836537,2.05919881 L1.02836537,2.05919881 L1.02836537,35.9901141 C1.02836537,36.5608569 1.48598796,37.0215646 2.04747545,37.0215646 L18.5198319,37.0215646 C19.0772059,37.0215646 19.538942,36.5577718 19.538942,35.9901141 L19.538942,2.05919881 C19.538942,1.48845603 19.0813194,1.02877671 18.5198319,1.02877671 L2.04747545,1.02877671 C1.49010142,1.02877671 1.02836537,1.49154113 1.02836537,2.05919881 L1.02836537,2.05919881 Z" id="Fill-1" fill="#818794"></path>
                <path d="M3.75970378,31.5749302 L16.8076036,31.5749302 L16.8076036,5.64058404 L3.75970378,5.64058404 L3.75970378,31.5749302 Z M2.73133842,32.6032956 L17.8359689,32.6032956 L17.8359689,4.61221867 L2.73133842,4.61221867 L2.73133842,32.6032956 Z" id="Fill-4" fill="#E6E7EA"></path>
                <path d="M9.83250979,2.39629698 L12.3417213,2.39629698 C12.5360823,2.39629698 12.6934222,2.55363688 12.6934222,2.7490263 C12.6934222,2.94338735 12.5360823,3.10072726 12.3417213,3.10072726 L9.83250979,3.10072726 C9.63814873,3.10072726 9.47978047,2.94338735 9.47978047,2.7490263 C9.47978047,2.55363688 9.63814873,2.39629698 9.83250979,2.39629698" id="Fill-6" fill="#818794"></path>
                <path d="M8.26898308,2.39629698 C8.48699654,2.39629698 8.66490375,2.55363688 8.66490375,2.7490263 C8.66490375,2.94338735 8.48699654,3.10072726 8.26898308,3.10072726 C8.05096962,3.10072726 7.87306242,2.94338735 7.87306242,2.7490263 C7.87306242,2.55363688 8.05096962,2.39629698 8.26898308,2.39629698" id="Fill-7" fill="#818794"></path>
                <path d="M10.2836537,34.901795 C10.1170585,34.901795 9.98131426,34.7660508 9.98131426,34.5994556 C9.98131426,34.4318321 10.1170585,34.2971162 10.2836537,34.2971162 C10.4502489,34.2971162 10.5859931,34.4318321 10.5859931,34.5994556 C10.5859931,34.7660508 10.4502489,34.901795 10.2836537,34.901795 M10.2836537,33.4374028 C9.64195368,33.4374028 9.12160081,33.9577556 9.12160081,34.5994556 C9.12160081,35.2411556 9.64195368,35.7615085 10.2836537,35.7615085 C10.9253537,35.7615085 11.4457065,35.2411556 11.4457065,34.5994556 C11.4457065,33.9577556 10.9253537,33.4374028 10.2836537,33.4374028" id="Fill-8" fill="#818794"></path>
            </g>
        </g>
    </g>
</svg>