<?xml version="1.0" encoding="UTF-8"?>
<svg width="68px" height="37px" viewBox="0 0 68 37" version="1.1" xmlns="http://www.w3.org/2000/svg" xmlns:xlink="http://www.w3.org/1999/xlink">
    <!-- Generator: Sketch 43.2 (39069) - http://www.bohemiancoding.com/sketch -->
    <title>Prezi-Logo-Transparent-1080p</title>
    <desc>Created with Sketch.</desc>
    <defs></defs>
    <g id="Enterprise" stroke="none" stroke-width="1" fill="none" fill-rule="evenodd">
        <g id="Artboard-2" transform="translate(-24.000000, -588.000000)" fill-rule="nonzero">
            <g id="Prezi-Logo-Transparent-1080p" transform="translate(24.000000, 588.000000)">
                <g id="g3216">
                    <g id="g5003" transform="translate(6.087523, 6.053998)" fill="#1966CC">
                        <path d="M4.11268318,12.440789 C4.05235829,17.0074102 7.96075575,20.8172703 12.5335458,20.8172703 C17.1061722,20.8172703 20.8501365,17.0077366 20.8501365,12.440789 C20.8501365,7.87373254 17.1073186,4.17434341 12.5335458,4.17434341 C6.47867432,4.17434341 4.15668486,9.10691664 4.11268318,12.440789 L4.11268318,12.440789 Z M12.5334913,5.0705667 C16.6094336,5.0705667 19.807526,8.36973668 19.807526,12.440789 C19.807526,16.5117868 16.609379,19.742912 12.5334913,19.742912 C8.45738515,19.742912 5.15512995,16.5117868 5.15512995,12.440789 C5.15518455,8.36973668 8.45738515,5.0705667 12.5334913,5.0705667 Z" id="path3854"></path>
                        <path d="M2.06207382,12.4404626 C2.06207382,18.347149 7.01892325,22.7583169 12.5329999,22.7583169 C18.0472404,22.7583169 22.8647147,18.2180759 22.8647147,12.4404626 C22.8647147,6.66279492 18.0056408,2.07273053 12.5329999,2.07273053 C7.06041366,2.07273053 2.06207382,6.28259217 2.06207382,12.4404626 L2.06207382,12.4404626 Z M12.5329999,3.00882344 C17.2596867,3.00882344 21.8710192,7.05665017 21.8710192,12.4404626 C21.8710192,17.8602828 17.6894947,21.7683211 12.5329999,21.7683211 C7.14202969,21.7683211 3.14497375,17.6445082 3.14497375,12.4404626 C3.14491916,7.03864629 7.37655974,3.00882344 12.5329999,3.00882344 L12.5329999,3.00882344 Z" id="path3857"></path>
                        <path d="M0.0340658176,12.4456299 C0.0340658176,19.5710864 5.88443325,24.8213655 12.5363301,24.8213655 C19.1882269,24.8213655 24.9641845,19.4154698 24.9641845,12.4456299 C24.9641845,5.47578996 19.1790007,0.0140876271 12.5363847,0.0140876271 C5.89360482,0.0140876271 0.0340658176,5.08149957 0.0340658176,12.4456299 Z M12.5363847,1.04101581 C18.5546245,1.04101581 23.9133851,5.95085303 23.9133851,12.4456843 C23.9133851,18.9838662 18.6138575,23.8304995 12.3933519,23.8304995 C6.21155245,23.8304995 1.00685236,18.7235443 1.00685236,12.4456843 C1.00685236,5.92915047 6.31587902,1.04101581 12.5363847,1.04101581 Z" id="path3859"></path>
                    </g>
                    <g id="g5008" transform="translate(12.529456, 12.472299)" fill="#318BFF">
                        <polygon id="path3819" points="5.44343377 0.019037334 6.76069998 0.019037334 6.76069998 11.9927045 5.44343377 11.9927045"></polygon>
                        <path d="M2.69376545,0.959699201 C3.22260451,0.540932246 4.01108625,0.335927356 4.01108625,0.335927356 L4.01108625,11.6421456 C3.26393115,11.4646089 2.70282783,11.0338212 2.70282783,11.0338212 L2.69376545,0.959699201 Z" id="path3821"></path>
                        <path d="M9.52641855,0.934352351 C8.99768867,0.515531004 8.20926153,0.310526113 8.20926153,0.310526113 L8.20926153,11.61669 C8.95641662,11.4390988 9.51751995,11.0083112 9.51751995,11.0083112 L9.52641855,0.934352351 Z" id="path3834"></path>
                        <path d="M1.24291101,2.32946258 L1.24291101,9.61385365 C1.24291101,9.61385365 0.0307356656,8.43152643 0.0307356656,5.99072264 C0.0307356656,3.54981008 1.24291101,2.32946258 1.24291101,2.32946258 Z" id="path3836"></path>
                        <path d="M10.8779144,2.27855131 L10.8779144,9.56294238 C10.8779144,9.56294238 12.0900897,8.38066955 12.0900897,5.93975698 C12.0900897,3.49900759 10.8779144,2.27855131 10.8779144,2.27855131 Z" id="path3838"></path>
                    </g>
                    <g id="g3386" transform="translate(18.610006, 18.493949) rotate(-2.947205) translate(-18.610006, -18.493949) translate(0.922201, 0.896388)" fill="#318BFF">
                        <polygon id="path4983" points="24.495706 5.65096037 26.4062307 2.41891048 24.8300314 1.56048986 23.2655696 5.0000467"></polygon>
                        <polygon id="path3039" points="21.8392818 4.48924782 23.0306028 0.931061188 21.3092417 0.419283241 20.4997418 4.10844673"></polygon>
                        <polygon id="path3041" points="19.0555476 3.91127434 19.4910332 0.185504772 17.7010492 0.0354361825 17.6663282 3.8115187"></polygon>
                        <polygon id="path3043" points="16.1427563 3.92052104 15.7850652 0.186483835 14.0032154 0.413463256 14.7634728 4.1129613"></polygon>
                        <polygon id="path3045" points="13.3035559 4.53520938 12.1703215 0.958094203 10.4754379 1.55118877 11.9949699 5.01065321"></polygon>
                        <polygon id="path3047" points="10.6596335 5.72536915 8.80211829 2.46280513 7.26888348 3.39519939 9.47961318 6.46254914"></polygon>
                        <polygon id="path3049" points="8.36635969 7.40021946 5.87808091 4.58530477 4.56873059 5.81060202 7.36267366 8.36231196"></polygon>
                        <polygon id="path3051" points="6.42466261 9.56340459 3.39962882 7.33043403 2.37699914 8.80185682 5.64551619 10.7136947"></polygon>
                        <polygon id="path3053" points="5.00656371 12.0261286 1.58627908 10.4585401 0.888202753 12.1076628 4.48078182 13.3111487"></polygon>
                        <polygon id="path3055" points="4.11457427 14.7767515 0.441307252 13.9548826 0.104033809 15.71279 3.86956242 16.1427074"></polygon>
                        <polygon id="path3057" points="3.81851828 17.594277 0.054136119 17.538688 0.0850355636 19.3281975 3.85918981 18.9813916"></polygon>
                        <polygon id="path3059" points="4.12167132 20.4806633 0.429133089 21.2121321 0.835630023 22.9554624 4.45304875 21.8284522"></polygon>
                        <polygon id="path3061" points="5.02201344 23.2329724 1.56449661 24.7172861 2.32775656 26.3374721 5.62881083 24.4819847"></polygon>
                        <polygon id="path3063" points="6.47739912 25.7335535 3.40694423 27.904136 4.49279221 29.3298691 7.33253852 26.8289073"></polygon>
                        <polygon id="path3065" points="8.38131808 27.8376141 5.8216321 30.5882914 7.177277 31.7625142 9.44336365 28.7354692"></polygon>
                        <polygon id="path3067" points="10.7373188 29.5441207 8.81298223 32.7680118 10.3854692 33.633177 11.9646164 30.2003649"></polygon>
                        <polygon id="path3069" points="13.4138877 30.7250882 12.2138865 34.2805008 13.9339374 34.7963582 14.7522267 31.1092072"></polygon>
                        <polygon id="path3071" points="16.253907 31.3156807 15.8250816 35.0422118 17.6154479 35.1890712 17.6432901 31.4128255"></polygon>
                        <polygon id="path3073" points="19.0973656 31.3088273 19.4428825 35.0438979 21.2255512 34.8227385 20.4773042 31.1207384"></polygon>
                        <polygon id="path3075" points="21.94541 30.700938 23.0689815 34.2810991 24.7653391 33.6925735 23.2551424 30.2289209"></polygon>
                        <polygon id="path3077" points="24.5963203 29.5157279 26.4459741 32.7827521 27.9814472 31.8540565 25.778033 28.7813763"></polygon>
                        <polygon id="path3079" points="26.9367075 27.8074807 29.4300088 30.6179896 30.73723 29.3904079 27.9386466 26.843702"></polygon>
                        <polygon id="path3081" points="28.8337478 25.6972193 31.8514116 27.9398718 32.8789 26.4717669 29.6166065 24.5493768"></polygon>
                        <polygon id="path3083" points="30.2855304 23.1812996 33.7079987 24.7442104 34.4039459 23.0942718 30.8096745 21.8956812"></polygon>
                        <polygon id="path3089" points="31.1780112 20.4093005 34.8536257 21.2206717 35.1858766 19.4617851 31.4191469 19.042583"></polygon>
                        <polygon id="path3091" points="31.4657145 17.5213912 35.2305334 17.5473908 35.1854398 15.7582077 31.4141244 16.1346574"></polygon>
                        <polygon id="path3093" points="31.1413249 14.6446868 34.8283493 13.8861306 34.4090231 12.1458462 30.8000116 13.2993455"></polygon>
                        <polygon id="path3095" points="30.2224759 11.9029298 33.6694017 10.3943571 32.8946227 8.77966472 29.6067253 10.6581601"></polygon>
                        <polygon id="path3097" points="28.7839047 9.45929757 31.848136 7.27995789 30.758139 5.85727068 27.9255444 8.36639139"></polygon>
                        <polygon id="path3099" points="26.8219538 7.3142251 29.3597481 4.5436402 27.994877 3.3801327 25.7528111 6.42480082"></polygon>
                    </g>
                </g>
                <g id="text3418" transform="translate(42.234146, 13.717073)" fill="#1966CC">
                    <g id="g3271">
                        <path d="M0.0121610544,1.03356341 L0.0121610544,9.32368415 L1.63931014,9.32368415 L1.63931014,6.86413171 L2.13593157,6.86413171 C2.55877593,6.86413171 2.96788281,6.79274878 3.3632522,6.64998293 C3.7586216,6.50717195 4.11250828,6.30461951 4.4251825,6.04219024 C4.73776664,5.77976098 4.98148318,5.46887073 5.15628708,5.10960976 C5.33104593,4.75043902 5.41851544,4.36356341 5.41851544,3.94884756 C5.41851544,3.53444756 5.33109098,3.14779756 5.15628708,2.78844634 C4.98148318,2.42914024 4.73776664,2.11834024 4.4251825,1.85573049 C4.11255332,1.59330122 3.75866664,1.39056829 3.3632522,1.24780244 C2.96788281,1.10503659 2.55882097,1.03351829 2.13593157,1.03351829 L0.0121610544,1.03351829 L0.0121610544,1.03356341 Z M2.13593157,2.66413537 C2.56805437,2.66413537 2.9472991,2.78154268 3.27357569,3.01649268 C3.59989732,3.25130732 3.76303561,3.56210732 3.76303561,3.94889268 C3.76303561,4.3359939 3.59989732,4.64688415 3.27357569,4.88178902 C2.94725406,5.11673902 2.56805437,5.23410122 2.13593157,5.23410122 L1.63931014,5.23410122 L1.63931014,2.66418049 L2.13593157,2.66418049 L2.13593157,2.66413537 Z" id="path3261"></path>
                        <path d="M10.2310501,4.40507561 L9.92751914,2.76065122 C9.7066834,2.76065122 9.48377578,2.80676585 9.25857106,2.89899512 C9.03336635,2.99108902 8.82424126,3.10168293 8.63106066,3.23064146 C8.43783501,3.35946463 8.28613712,3.46992317 8.17583185,3.5620622 C8.06557162,3.65406585 7.98742559,3.71854512 7.94134871,3.75536463 C7.93216035,3.737 7.89991104,3.68876463 7.84478093,3.61052317 C7.78960577,3.53219146 7.71618904,3.43775122 7.62417039,3.32715732 C7.53233191,3.21656341 7.44495248,3.11530976 7.36216723,3.02317073 C7.27947206,2.93107683 7.20574004,2.86208537 7.14124141,2.81597073 L5.81753315,3.60352927 C6.17610409,3.87994634 6.44044938,4.18618902 6.61047894,4.52230244 C6.78055354,4.8585061 6.86559084,5.25233049 6.86559084,5.70386585 L6.86559084,9.32372927 L8.43801518,9.32372927 L8.43801518,5.57932927 C8.47481363,5.53325976 8.54381635,5.45488293 8.64488823,5.34455976 C8.74605018,5.2340561 8.87937137,5.10509756 9.04476171,4.95763902 C9.21010701,4.81022561 9.39860335,4.6813122 9.61025074,4.57089878 C9.82176301,4.46025976 10.0287261,4.40507561 10.2310501,4.40507561 L10.2310501,4.40507561 Z" id="path3263"></path>
                        <path d="M12.6002036,7.01637317 L12.8346868,7.01637317 C14.4896261,7.01637317 16.327837,6.12011585 16.2296478,4.73649634 C16.1732565,3.94077073 15.9330081,3.6749122 15.5169199,3.31677927 C15.0755637,2.97141585 14.3450897,2.78045976 13.8378837,2.77666951 C13.4240475,2.77364634 12.9998069,2.91375 12.6459202,3.09329024 C12.2918533,3.27292073 11.9798547,3.47966951 11.7224457,3.80206585 C11.4650367,4.12450732 11.2483898,4.47172073 11.1104744,4.88151829 C10.972514,5.29145122 10.9036464,5.7128 10.9036464,6.1457 C10.9036464,6.5786 10.9725591,7.00003902 11.1104744,7.40997195 C11.2483898,7.81995 11.4437774,8.18385854 11.6965922,8.50165244 C11.9494521,8.81953659 12.2527578,9.07041463 12.6067346,9.2547378 C12.9606212,9.43892561 13.3493246,9.53115488 13.7724392,9.53115488 C14.1032649,9.53115488 14.4112549,9.4757 14.6962289,9.36519634 C14.9813381,9.2545122 15.2203704,9.12550854 15.4133708,8.97827561 C15.6065514,8.83104268 15.75352,8.70203902 15.8546819,8.59144512 C15.9558889,8.48085122 16.0249367,8.40247439 16.0616901,8.35640488 L15.1790678,7.47219512 C15.1054259,7.56442439 14.951521,7.67718415 14.7170829,7.81074512 C14.4826448,7.94421585 14.1677635,8.01113171 13.7723941,8.01113171 C13.5700702,8.01113171 13.3975634,7.97187561 13.2550539,7.89358902 C13.1124993,7.81534756 12.9953478,7.71851585 12.9034192,7.60354512 C12.8114907,7.4883939 12.7472173,7.38700488 12.7105089,7.29960366 C12.6738005,7.21197683 12.636912,7.11749146 12.6002036,7.01637317 L12.6002036,7.01637317 Z M13.7534769,4.14377439 C14.0292626,4.14377439 14.2372617,4.14630122 14.5036338,4.3090561 C14.6689791,4.41500244 14.8267125,4.58858659 14.8157225,4.78076098 C14.7899591,5.23234146 14.0759701,5.5273939 13.5493514,5.62819634 C13.1839342,5.69822561 13.0489465,5.72575 12.4605767,5.72575 C12.469765,5.6614061 12.4778274,5.6272939 12.5100317,5.48448293 C12.5422359,5.34171707 12.6207873,5.14024756 12.7082118,4.95592439 C12.7956813,4.77178171 12.9243633,4.60821463 13.0944379,4.46544878 C13.2644224,4.3226378 13.5050761,4.14377439 13.7534769,4.14377439 L13.7534769,4.14377439 Z" id="path3265"></path>
                        <polygon id="path3267" points="17.1074057 2.96807683 17.1074057 4.51553415 19.5207894 4.51553415 16.9693552 9.32368415 21.9893033 9.32368415 21.9893033 7.77618171 19.4378691 7.77618171 21.9893033 2.96807683 17.1074057 2.96807683"></polygon>
                        <path d="M24.1157313,0.0250426829 C23.8488186,0.0250426829 23.6234788,0.117181707 23.4398018,0.301369512 C23.2559447,0.485692683 23.1641062,0.711257317 23.1641062,0.978379268 C23.1641062,1.2454561 23.2559447,1.47106585 23.4398018,1.65529878 C23.6234788,1.83957683 23.8488186,1.93176098 24.1157313,1.93176098 C24.3822836,1.93176098 24.6074883,1.83957683 24.7914355,1.65529878 C24.9753827,1.47106585 25.0674464,1.2454561 25.0674464,0.978379268 C25.0674464,0.711257317 24.9753827,0.485692683 24.7914355,0.301369512 C24.6074883,0.117181707 24.3822836,0.0250426829 24.1157313,0.0250426829 Z M24.9154332,2.96807683 L23.3155339,2.96807683 L23.3155339,9.32368415 L24.9154332,9.32368415 L24.9154332,2.96807683 Z" id="path3269"></path>
                    </g>
                </g>
            </g>
        </g>
    </g>
</svg>