<?xml version="1.0" encoding="UTF-8"?>
<svg width="57px" height="31px" viewBox="0 0 57 31" version="1.1" xmlns="http://www.w3.org/2000/svg" xmlns:xlink="http://www.w3.org/1999/xlink">
    <!-- Generator: Sketch 43.2 (39069) - http://www.bohemiancoding.com/sketch -->
    <title>prezi</title>
    <desc>Created with Sketch.</desc>
    <defs></defs>
    <g id="Components" stroke="none" stroke-width="1" fill="none" fill-rule="evenodd" opacity="0.4">
        <g id="Transifex---Landing-Next-gen---Version-3b" transform="translate(-109.000000, -653.000000)" fill-rule="nonzero" fill="#FFFFFF">
            <g id="Hero">
                <g id="Companies" transform="translate(71.000000, 570.000000)">
                    <g id="Logos" transform="translate(0.000000, 28.000000)">
                        <g id="prezi" transform="translate(38.000000, 54.000000)">
                            <g id="g3216">
                                <g id="g5003" transform="translate(5.150981, 5.968768)">
                                    <path d="M3.47996269,10.5268215 C3.42891855,14.3908856 6.7360241,17.6146133 10.605308,17.6146133 C14.4744534,17.6146133 17.6424232,14.3911617 17.6424232,10.5268215 C17.6424232,6.66238907 14.4754234,3.53213673 10.605308,3.53213673 C5.48195519,3.53213673 3.51719488,7.70585254 3.47996269,10.5268215 L3.47996269,10.5268215 Z M10.6052619,4.29047952 C14.0541361,4.29047952 16.7602143,7.08208488 16.7602143,10.5268215 C16.7602143,13.9715119 14.0540899,16.7055409 10.6052619,16.7055409 C7.15624897,16.7055409 4.36203303,13.9715119 4.36203303,10.5268215 C4.36207923,7.08208488 7.15624897,4.29047952 10.6052619,4.29047952 Z" id="path3854"></path>
                                    <path d="M1.74483169,10.5265453 C1.74483169,15.5245107 5.9390889,19.2570374 10.6048461,19.2570374 C15.2707419,19.2570374 19.3470663,15.415295 19.3470663,10.5265453 C19.3470663,5.63774955 15.2355422,1.75384891 10.6048461,1.75384891 C5.97419617,1.75384891 1.74483169,5.31603953 1.74483169,10.5265453 L1.74483169,10.5265453 Z M10.6048461,2.54592753 C14.6043503,2.54592753 18.506247,5.97101168 18.506247,10.5265453 C18.506247,15.112547 14.968034,18.4193486 10.6048461,18.4193486 C6.04325589,18.4193486 2.66113163,14.9299685 2.66113163,10.5265453 C2.66108544,5.95577763 6.2417044,2.54592753 10.6048461,2.54592753 L10.6048461,2.54592753 Z" id="path3857"></path>
                                    <path d="M0.0288249226,10.5309176 C0.0288249226,16.56015 4.97913583,21.0026939 10.6076639,21.0026939 C16.236192,21.0026939 21.1235407,16.4284744 21.1235407,10.5309176 C21.1235407,4.63336074 16.2283852,0.0119202999 10.6077101,0.0119202999 C4.98689639,0.0119202999 0.0288249226,4.29973041 0.0288249226,10.5309176 Z M10.6077101,0.880859532 C15.7000669,0.880859532 20.2344028,5.03533718 20.2344028,10.5309636 C20.2344028,16.0632714 15.7501871,20.1642688 10.4866824,20.1642688 C5.255929,20.1642688 0.851951997,15.842999 0.851951997,10.5309636 C0.851951997,5.01697347 5.34420532,0.880859532 10.6077101,0.880859532 Z" id="path3859"></path>
                                </g>
                                <g id="g5008" transform="translate(10.601847, 11.399638)">
                                    <polygon id="path3819" points="4.60598242 0.0161085134 5.72059229 0.0161085134 5.72059229 10.147673 4.60598242 10.147673"></polygon>
                                    <path d="M2.27934,0.81205317 C2.7268192,0.4577119 3.39399606,0.284246224 3.39399606,0.284246224 L3.39399606,9.85104628 C2.7617879,9.70082292 2.28700816,9.33631025 2.28700816,9.33631025 L2.27934,0.81205317 Z" id="path3821"></path>
                                    <path d="M8.0608157,0.790605835 C7.61342887,0.436218542 6.94629822,0.262752865 6.94629822,0.262752865 L6.94629822,9.82950692 C7.57850637,9.67923745 8.05328611,9.31472486 8.05328611,9.31472486 L8.0608157,0.790605835 Z" id="path3834"></path>
                                    <path d="M1.05169393,1.97108372 L1.05169393,8.13479924 C1.05169393,8.13479924 0.0260071017,7.13436852 0.0260071017,5.069073 C0.0260071017,3.00368545 1.05169393,1.97108372 1.05169393,1.97108372 Z" id="path3836"></path>
                                    <path d="M9.20438911,1.92800495 L9.20438911,8.09172048 C9.20438911,8.09172048 10.2300759,7.09133577 10.2300759,5.02594821 C10.2300759,2.96069873 9.20438911,1.92800495 9.20438911,1.92800495 Z" id="path3838"></path>
                                </g>
                                <g id="g3386" transform="translate(16.028252, 16.821373) rotate(-2.947205) translate(-16.028252, -16.821373) translate(0.797483, 1.590603)">
                                    <polygon id="path4983" points="20.7271358 4.78158185 22.3437337 2.04677041 21.0100266 1.3204145 19.6862512 4.23080875"></polygon>
                                    <polygon id="path3039" points="18.4793923 3.79859431 19.4874331 0.787821005 18.0308968 0.354778127 17.3459354 3.476378"></polygon>
                                    <polygon id="path3041" points="16.1239249 3.30953983 16.4924127 0.156965576 14.9778109 0.0299844621 14.9484316 3.22513121"></polygon>
                                    <polygon id="path3043" points="13.6592553 3.31736396 13.3565936 0.157794014 11.8488746 0.349853524 12.4921693 3.48019802"></polygon>
                                    <polygon id="path3045" points="11.256855 3.83748486 10.2979643 0.810695095 8.86383207 1.31254434 10.1495899 4.23978349"></polygon>
                                    <polygon id="path3047" points="9.01968988 4.84454313 7.44794625 2.08391203 6.15059371 2.87286102 8.02121115 5.46831081"></polygon>
                                    <polygon id="path3049" points="7.07922743 6.26172416 4.97376077 3.87987327 3.86584896 4.91666325 6.22995464 7.07580243"></polygon>
                                    <polygon id="path3051" points="5.43625298 8.09211158 2.876609 6.20267495 2.01130696 7.447725 4.77697524 9.06543398"></polygon>
                                    <polygon id="path3053" points="4.23632314 10.175955 1.34223614 8.84953393 0.751556176 10.2449454 3.79143077 11.2632797"></polygon>
                                    <polygon id="path3055" points="3.48156284 12.5034051 0.373413829 11.8079776 0.0880286076 13.2954377 3.27424512 13.659214"></polygon>
                                    <polygon id="path3057" points="3.23105393 14.8874652 0.0458074853 14.8404283 0.0719531692 16.3546287 3.2654683 16.0611775"></polygon>
                                    <polygon id="path3059" points="3.48756804 17.329792 0.363112614 17.9487272 0.707071558 19.4238528 3.76796433 18.4702288"></polygon>
                                    <polygon id="path3061" points="4.24939599 19.658669 1.32380482 20.9146267 1.96964017 22.2855533 4.76283993 20.7155255"></polygon>
                                    <polygon id="path3063" points="5.48087618 21.7745453 2.88279896 23.611192 3.80159341 24.8175815 6.20445567 22.7013831"></polygon>
                                    <polygon id="path3065" points="7.09188453 23.5549042 4.92599639 25.8824004 6.07308054 26.8759736 7.99053847 24.3146278"></polygon>
                                    <polygon id="path3067" points="9.0854236 24.9988714 7.45713881 27.7267792 8.78770471 28.4588421 10.1239062 25.5541549"></polygon>
                                    <polygon id="path3069" points="11.3502127 25.9981516 10.334827 29.0065776 11.7902547 29.4430723 12.4826534 26.3231753"></polygon>
                                    <polygon id="path3071" points="13.7533059 26.4978837 13.3904537 29.6511023 14.905379 29.7753679 14.9289378 26.5800831"></polygon>
                                    <polygon id="path3073" points="16.1593094 26.4920846 16.4516698 29.652529 17.9600818 29.4653941 17.3269497 26.3329325"></polygon>
                                    <polygon id="path3075" points="18.5691931 25.9777168 19.5199074 29.0070839 20.9552869 28.5091007 19.6774282 25.5783177"></polygon>
                                    <polygon id="path3077" points="20.812271 24.9748467 22.3773627 27.7392518 23.6766092 26.9534324 21.8121818 24.3534723"></polygon>
                                    <polygon id="path3079" points="22.7925987 23.5294067 24.9023151 25.9075297 26.0084254 24.8688067 23.6403933 22.7139017"></polygon>
                                    <polygon id="path3081" points="24.3977866 21.7438009 26.9511944 23.64143 27.8206077 22.3991874 25.0602055 20.7725496"></polygon>
                                    <polygon id="path3083" points="25.626218 19.6149458 28.5221527 20.9374088 29.1110311 19.5413069 26.0697246 18.5271149"></polygon>
                                    <polygon id="path3089" points="26.3813941 17.2694081 29.4915294 17.955953 29.7726648 16.4676643 26.585432 16.1129548"></polygon>
                                    <polygon id="path3091" points="26.6248353 14.8257926 29.8104513 14.8477922 29.7722952 13.3338681 26.5811822 13.6524024"></polygon>
                                    <polygon id="path3093" points="26.3503518 12.3916581 29.4701417 11.7498028 29.1153272 10.2772545 26.0615483 11.2532923"></polygon>
                                    <polygon id="path3095" points="25.5728642 10.0717098 28.4894937 8.79522524 27.8339115 7.42894707 25.0518445 9.01844316"></polygon>
                                    <polygon id="path3097" points="24.3556117 8.00402102 26.9484228 6.15996437 26.0261176 4.95615211 23.6293068 7.07925425"></polygon>
                                    <polygon id="path3099" points="22.6954994 6.1889597 24.8428638 3.84461863 23.6879728 2.86011228 21.7908402 5.43636992"></polygon>
                                </g>
                            </g>
                            <g id="text3418" transform="translate(35.736585, 12.452908)">
                                <g id="g3271">
                                    <path d="M0.010290123,0.874553655 L0.010290123,7.8892712 L1.38710858,7.8892712 L1.38710858,5.80811145 L1.80732671,5.80811145 C2.16511809,5.80811145 2.51128545,5.74771051 2.84582878,5.62690863 C3.18037212,5.50606857 3.4798147,5.33467805 3.74438519,5.11262251 C4.00887946,4.89056698 4.21510115,4.627506 4.36301214,4.32351595 C4.51088502,4.01960225 4.58489768,3.69224596 4.58489768,3.34133255 C4.58489768,2.9906864 4.51092314,2.66352101 4.36301214,2.3594546 C4.21510115,2.05542636 4.00887946,1.79244174 3.74438519,1.57023349 C3.47985281,1.34817796 3.18041023,1.17663471 2.84582878,1.05583283 C2.51128545,0.935030961 2.16515621,0.874515476 1.80732671,0.874515476 L0.010290123,0.874515476 L0.010290123,0.874553655 Z M1.80732671,2.25426839 C2.17296908,2.25426839 2.49386847,2.35361304 2.76994866,2.55241688 C3.04606696,2.75110619 3.18410705,3.01409081 3.18410705,3.34137073 C3.18410705,3.66891792 3.04606696,3.9319789 2.76994866,4.13074456 C2.49383036,4.3295484 2.17296908,4.42885488 1.80732671,4.42885488 L1.38710858,4.42885488 L1.38710858,2.25430657 L1.80732671,2.25430657 L1.80732671,2.25426839 Z" id="path3261"></path>
                                    <path d="M8.65704239,3.72737167 L8.4002085,2.33593565 C8.21334749,2.33593565 8.02473335,2.37495572 7.83417551,2.45299587 C7.64361768,2.53092148 7.46666568,2.62450094 7.30320517,2.7336197 C7.13970655,2.84262392 7.01134679,2.93608884 6.91801157,3.01405263 C6.82471445,3.09190187 6.75859088,3.14646126 6.71960275,3.17761623 C6.71182799,3.16207692 6.68454011,3.12126238 6.63789156,3.05505807 C6.59120488,2.98877739 6.52908303,2.90886642 6.4512211,2.81528696 C6.37351162,2.7217075 6.29957518,2.63603134 6.22952612,2.55806754 C6.15955328,2.48014193 6.09716465,2.42176454 6.04258889,2.38274446 L4.92252805,3.04914015 C5.22593423,3.28303152 5.44961101,3.54215994 5.59348218,3.8265636 C5.73739146,4.11104362 5.8093461,4.44427965 5.8093461,4.82634803 L5.8093461,7.88930938 L7.139859,7.88930938 L7.139859,4.72097092 C7.17099615,4.68198903 7.22938307,4.61567017 7.31490543,4.5223198 C7.400504,4.4288167 7.51331424,4.31969794 7.65325991,4.19492532 C7.79316747,4.0701909 7.95266437,3.96111032 8.13175063,3.86768358 C8.31072255,3.77406595 8.48584516,3.72737167 8.65704239,3.72737167 L8.65704239,3.72737167 Z" id="path3263"></path>
                                    <path d="M10.6617107,5.93693114 L10.8601196,5.93693114 C12.2604529,5.93693114 13.8158621,5.17855957 13.7327789,4.0078046 C13.6850632,3.33449831 13.4817761,3.10954109 13.1297015,2.80650554 C12.7562462,2.51427495 12.1381528,2.35269672 11.7089785,2.34948959 C11.3588094,2.34693152 10.9998366,2.46548077 10.700394,2.61739943 C10.4007989,2.76939446 10.1368001,2.94433574 9.91899252,3.21713264 C9.7011849,3.48996773 9.51786829,3.78376369 9.40117065,4.13051548 C9.28443492,4.4773818 9.22616234,4.83390769 9.22616234,5.20020769 C9.22616234,5.56650769 9.28447308,5.92310994 9.40117065,6.26997627 C9.51786829,6.61688077 9.68319626,6.92480338 9.89711648,7.19370591 C10.1110749,7.46268481 10.3677181,7.67496623 10.667237,7.83093198 C10.9666795,7.98678321 11.2955824,8.06482336 11.6536024,8.06482336 C11.9335318,8.06482336 12.1941388,8.0179 12.4352706,7.9243969 C12.6765169,7.83074109 12.878775,7.72158415 13.042083,7.59700244 C13.2055435,7.47242073 13.3299015,7.36326379 13.4155001,7.26968433 C13.5011368,7.17610488 13.5595618,7.10978602 13.5906609,7.07080413 L12.8438266,6.32262664 C12.7815142,6.40066679 12.651287,6.4960789 12.4529163,6.60909202 C12.2545456,6.7220288 11.9881076,6.77864991 11.6535642,6.77864991 C11.4823671,6.77864991 11.3363998,6.74543321 11.2158148,6.67919071 C11.0951917,6.6129864 10.9960635,6.53105187 10.9182778,6.43376895 C10.8404921,6.3363333 10.7861069,6.25054259 10.755046,6.17658771 C10.723985,6.10244193 10.6927717,6.02249277 10.6617107,5.93693114 L10.6617107,5.93693114 Z M11.6375574,3.50627064 C11.8709145,3.50627064 12.0469137,3.50840872 12.2723055,3.64612439 C12.4122131,3.7357713 12.5456798,3.88265019 12.5363806,4.04525929 C12.5145808,4.42736585 11.9104362,4.67702561 11.4648358,4.76231998 C11.1556366,4.82157552 11.0414163,4.84486538 10.5435649,4.84486538 C10.5513396,4.79042055 10.5581616,4.76155638 10.5854114,4.64071633 C10.6126611,4.51991444 10.6791277,4.34944024 10.7531023,4.19347448 C10.8271149,4.03766145 10.9359997,3.89925853 11.079909,3.77845666 C11.223742,3.6576166 11.4273721,3.50627064 11.6375574,3.50627064 L11.6375574,3.50627064 Z" id="path3265"></path>
                                    <polygon id="path3267" points="14.4754971 2.51144963 14.4754971 3.82083659 16.517591 3.82083659 14.3586852 7.8892712 18.6063336 7.8892712 18.6063336 6.57984606 16.4474277 6.57984606 18.6063336 2.51144963"></polygon>
                                    <path d="M20.4056188,0.0211899625 C20.1797696,0.0211899625 19.9890974,0.0991537521 19.8336784,0.255004972 C19.6781071,0.410970732 19.6003976,0.601833114 19.6003976,0.827859381 C19.6003976,1.05384747 19.6781071,1.24474803 19.8336784,1.40063743 C19.9890974,1.55656501 20.1797696,1.63456698 20.4056188,1.63456698 C20.631163,1.63456698 20.8217209,1.55656501 20.9773685,1.40063743 C21.1330161,1.24474803 21.2109162,1.05384747 21.2109162,0.827859381 C21.2109162,0.601833114 21.1330161,0.410970732 20.9773685,0.255004972 C20.8217209,0.0991537521 20.631163,0.0211899625 20.4056188,0.0211899625 Z M21.0822896,2.51144963 L19.7285287,2.51144963 L19.7285287,7.8892712 L21.0822896,7.8892712 L21.0822896,2.51144963 Z" id="path3269"></path>
                                </g>
                            </g>
                        </g>
                    </g>
                </g>
            </g>
        </g>
    </g>
</svg>