<?xml version="1.0" encoding="UTF-8"?>
<svg width="79px" height="23px" viewBox="0 0 79 23" version="1.1" xmlns="http://www.w3.org/2000/svg" xmlns:xlink="http://www.w3.org/1999/xlink">
    <!-- Generator: Sketch 43.2 (39069) - http://www.bohemiancoding.com/sketch -->
    <title>trello</title>
    <desc>Created with Sketch.</desc>
    <defs></defs>
    <g id="Components" stroke="none" stroke-width="1" fill="none" fill-rule="evenodd" opacity="0.4">
        <g id="Transifex---Landing-Next-gen---Version-3b" transform="translate(-574.000000, -600.000000)" fill-rule="nonzero" fill="#FFFFFF">
            <g id="Hero">
                <g id="Companies" transform="translate(71.000000, 570.000000)">
                    <g id="Logos" transform="translate(0.000000, 28.000000)">
                        <g id="trello" transform="translate(503.000000, 2.000000)">
                            <path d="M63.4738454,16.7420143 C62.2699075,17.2325788 61.3198563,18.9274055 59.8749354,19.8906862 C59.7853377,19.9504179 59.69574,19.9802838 59.6360082,19.9802838 C59.5165446,19.9802838 59.3672152,19.8608203 59.3672152,19.3232341 C59.3672152,17.4715486 59.964533,16.5755718 60.4722533,15.2614724 C62.2343411,10.6919904 65.2507964,6.77955819 67.938727,2.50873519 C68.1477883,2.18021034 68.2672519,1.8218196 68.2672519,1.43356297 C68.2672519,1.10503812 68.1477883,0.836245065 67.9984588,0.507720217 C67.8789953,0.238927161 67.3414091,0 66.7440912,0 C66.4155664,0 66.1169074,0.0298658951 65.7286508,0.0298658951 C64.3249537,0.0298658951 64.0262948,2.09061266 63.6977699,2.62819877 C61.4578278,6.42116745 58.8893608,11.110113 57.5752614,14.4252273 C57.2870953,15.1683926 56.9758233,15.9115579 56.7392266,16.6742795 C55.4406308,17.0503175 54.4677805,18.8761976 52.9460477,19.8906862 C52.85645,19.9504179 52.7668523,19.9802838 52.7071205,19.9802838 C52.587657,19.9802838 52.4383275,19.8608203 52.4383275,19.3232341 C52.4383275,17.4715486 53.0356454,16.5755718 53.5433656,15.2614724 C55.3054534,10.6919904 58.3219088,6.77955819 61.0098393,2.50873519 C61.2189006,2.18021034 61.3383642,1.8218196 61.3383642,1.43356297 C61.3383642,1.10503812 61.2189006,0.836245065 61.0695712,0.507720217 C60.9501076,0.238927161 60.4125215,0 59.8152036,0 C59.4866787,0 59.1880198,0.0298658951 58.7997631,0.0298658951 C57.396066,0.0298658951 57.0974071,2.09061266 56.7688822,2.62819877 C54.5289402,6.42116745 51.9604732,11.110113 50.6463737,14.4252273 C50.5419033,14.6946513 50.4343959,14.9640753 50.3285108,15.2344311 C50.2958133,15.2518959 50.2624232,15.2708351 50.2282512,15.2913383 C48.7050906,16.1873151 47.4208571,17.7702076 45.5691716,18.8453798 C45.2107809,19.0544411 44.1057428,19.8309544 43.2097658,19.8309544 C43.0007046,19.8309544 42.8215092,19.7712225 42.6423139,19.6816249 C42.3735208,19.5621613 42.1047278,18.9947093 42.1047278,18.8155139 C42.1047278,18.6661844 42.1345936,18.6363186 42.4332526,18.4571232 C45.0614514,16.8742308 47.2117958,14.6044227 49.0634813,12.3346147 C49.7503969,11.4983696 50.6463737,9.85574536 50.6463737,8.66110959 C50.6463737,7.88459631 50.3775807,6.98861946 49.451738,6.66009461 C48.7946883,6.42116745 48.0480409,6.30170387 47.450723,6.30170387 C45.8678306,6.30170387 44.7030606,7.01848535 44.0460109,7.70540094 C43.3770981,8.41951069 42.7300723,9.15277172 42.1289476,9.91180852 C41.5008676,9.36956191 40.614968,9.13896391 39.7751879,9.13896391 C38.7896134,9.13896391 36.9379279,10.3634656 35.9822192,11.0802471 C35.8328898,11.1997107 35.7432921,11.2594424 35.6835603,11.2594424 C35.6536945,11.2594424 35.6238285,11.2295766 35.6238285,11.1698448 C35.6238285,11.1399789 35.6835603,10.8711858 35.6835603,10.3933315 C35.6835603,9.975209 35.5939626,9.43762286 35.205706,8.78057315 C35.1161083,8.63124368 34.5785222,8.30271882 33.9214725,8.30271882 C33.1150934,8.30271882 32.3684459,8.6909755 32.3684459,9.109098 C32.3684459,9.40775695 32.637239,9.52722051 32.637239,9.79601362 C32.637239,9.94534309 32.5177754,10.6322586 32.3385801,11.2893083 C31.8308599,13.2007256 31.2036761,15.082277 30.5466264,16.9638284 C30.1882356,18.0091348 28.9935998,18.9349775 28.9935998,20.0698815 C28.9935998,20.4282722 29.2325269,20.9061266 29.5610518,21.2645173 C30.0986379,21.8618352 30.4271628,22.0708965 30.9050171,22.0708965 C31.1140783,22.0708965 31.3530055,22.0111647 31.5620668,21.8319693 C32.0100552,21.4437127 32.2489824,21.055456 32.3684459,20.51787 C33.1449592,16.9936943 35.3849013,14.6044227 37.8637706,13.0215303 C38.7000157,12.4839442 39.8349197,11.9164921 39.9842492,11.9164921 C40.1373722,11.9164921 40.3768521,11.9871479 40.6181635,12.0560087 C39.9252265,13.1862423 39.363772,14.3781834 38.9986746,15.6497291 C38.8792111,16.0678516 38.8194793,16.4561082 38.8194793,16.8742308 C38.8194793,17.5611463 38.9688087,18.2779278 39.2077359,18.9648434 C39.5362608,19.920552 40.0738469,20.7567971 40.8204943,21.1450538 C42.1943255,21.8618352 43.1799,22.2500919 44.0758768,22.2500919 C44.5835971,22.2500919 44.9718537,22.1604942 45.3899763,21.921567 C47.3529681,20.8109269 48.5564855,19.9683366 49.4255259,19.2199334 C49.4493545,19.9787493 49.5989336,20.3991524 50.1386535,20.9658584 C50.6762397,21.5333104 51.5124847,22.0410306 52.6175229,22.2799577 C52.7967183,22.3098236 52.9759136,22.3396895 53.1551089,22.3396895 C54.4194223,22.3396895 55.6361604,21.3120634 56.5743839,20.2933524 C56.6830123,20.5156534 56.8408696,20.7278532 57.0675412,20.9658584 C57.6051273,21.5333104 58.4413724,22.0410306 59.5464105,22.2799577 C59.7256058,22.3098236 59.9048012,22.3396895 60.0839966,22.3396895 C61.5650138,22.3396895 62.9807492,20.9296026 63.9599978,19.7755351 C64.2863658,20.4505819 65.1983938,21.1179926 66.2961028,21.6527739 C66.5947618,21.8021034 66.9531525,21.8917011 67.2816773,21.8917011 C68.5659108,21.8917011 69.4917536,20.8463948 70.2085351,20.0698815 C72.0602206,18.0390006 73.075661,15.5302654 73.8521743,12.3644805 C73.911906,12.1255534 74.0015038,12.0359557 74.1209673,12.0359557 C74.4196263,12.0359557 74.8078829,12.0359557 75.2260055,11.976224 C76.0323846,11.8567604 76.6595684,11.5879673 77.4062158,11.4685037 C77.8542042,11.3789061 77.7944725,11.2295766 78.212595,11.0802471 C78.5112539,10.9607835 78.7501811,10.8413199 78.7501811,10.542661 C78.7501811,10.0349407 77.8243383,9.49735468 76.4206412,9.49735468 C75.3156031,9.49735468 74.6585535,9.58695233 74.210565,9.58695233 C73.5236494,9.58695233 73.3444541,9.37789104 72.8964656,8.21312116 C72.8964656,8.21312116 73.3444541,9.37789104 72.8964656,8.21312116 C72.8068679,7.974194 72.7172703,7.85473042 72.4484772,7.61580326 C71.8212934,7.07821714 71.0447802,6.89902177 70.4175964,6.89902177 C68.9243016,6.89902177 67.6400681,8.42218239 66.7440912,9.70641589 C66.53503,10.0050748 66.236371,10.244002 66.0273097,10.5725269 C64.7970371,12.4179358 63.6191186,14.4989389 63.4738454,16.7420143 Z M25.2902288,6.57049692 C26.0368762,6.57049692 26.4549987,6.51076513 26.5445964,6.51076513 C26.6341941,6.51076513 26.6939258,6.54063103 26.6939258,6.63022871 C26.6939258,6.68996051 26.66406,6.77955819 26.4549987,7.22754662 C24.6331792,11.1399789 23.3788116,15.1121429 22.2737734,19.5024295 C22.2439075,19.6218931 22.1543098,20.0698815 22.1543098,20.51787 C22.1543098,20.9359925 22.2737734,21.3839809 22.6918959,21.6229081 C23.4982751,22.1007623 24.1553248,22.3098236 24.6033132,22.3098236 C25.2603629,22.3098236 25.5888878,21.8917011 25.5888878,21.2047855 C25.5888878,20.6074676 25.6187536,19.9802838 25.7083514,19.5024295 C26.5445964,15.1121429 27.798964,11.677565 29.7402472,8.09365757 C30.6660899,6.39130156 30.7855535,6.30170387 30.7855535,6.1523744 C30.7855535,6.09264261 30.7556876,6.00304492 30.6959558,5.91344723 C31.8905916,5.64465418 33.3241546,5.46545881 34.638254,5.46545881 C34.7875835,5.46545881 35.3849013,5.67452007 35.4744991,5.76411776 C35.6835603,5.97317902 35.8926216,6.18224029 36.2510123,6.18224029 C36.5496713,6.18224029 37.0573915,5.97317902 37.2365868,5.85371544 C37.6547094,5.55505649 37.8637706,5.22653165 37.8637706,4.68894553 C37.8637706,4.18122531 35.9822192,2.92685772 34.6681199,2.92685772 C33.0553615,2.92685772 31.5919327,3.13591899 30.2181015,3.40471205 C29.6207836,3.52417562 27.4704392,3.85270047 25.9174126,3.85270047 C24.4241179,3.85270047 24.5137155,3.6436392 23.8865317,3.6436392 C23.528141,3.6436392 23.3489456,3.82283458 23.1996162,3.97216405 C23.0502867,4.12149353 22.960689,4.71881143 22.960689,5.25639754 C22.960689,5.5251906 22.960689,5.73425186 23.1100184,5.91344723 C23.5580069,6.45103335 24.4241179,6.57049692 25.2902288,6.57049692 C25.2902288,6.57049692 24.4241179,6.57049692 25.2902288,6.57049692 Z M47.4208571,8.98963444 C47.4208571,9.25842747 47.3312594,9.43762286 46.9728687,10.0050748 C46.6144779,10.5725269 46.7638074,10.5725269 46.315819,11.1698448 C45.449708,12.3346147 44.3745358,13.4993846 42.9708387,14.7836181 C42.582582,15.1420088 42.5228503,15.1420088 42.4631185,15.1420088 C42.4332526,15.1420088 42.3735208,15.1121429 42.3735208,15.0524111 C42.3735208,14.9628135 42.4033867,14.8433499 42.7020457,14.2161661 C43.6278884,12.2748829 44.7627925,10.9906494 46.0171601,9.7362818 C46.7040756,9.04936618 47.1221982,8.81043906 47.2715276,8.81043906 C47.3611253,8.81043906 47.4208571,8.84030497 47.4208571,8.98963444 C47.4208571,8.98963444 47.4208571,8.84030497 47.4208571,8.98963444 Z M70.3877305,9.76614771 C70.4175964,9.76614771 70.4474622,9.79601362 70.4773281,9.85574536 C70.507194,9.94534309 70.5669258,10.0349407 70.7162553,10.1544043 C70.8357189,10.244002 70.8357189,10.6621245 70.8357189,10.9906494 C70.8357189,13.8876413 69.1930946,16.2769129 67.5803363,18.6960503 C67.2219456,19.2336365 67.0128843,19.3232341 66.8336889,19.3232341 C66.6843594,19.3232341 66.4454323,18.9349775 66.3558346,18.6960503 C66.236371,18.3675255 66.2065051,17.9792689 66.2065051,17.8299394 C66.2065051,15.5003995 68.4165813,12.0359557 69.8800102,10.1245385 C70.1189373,9.79601362 70.2981327,9.76614771 70.3877305,9.76614771 C70.3877305,9.76614771 70.2981327,9.76614771 70.3877305,9.76614771 Z" id="Type"></path>
                            <path d="M0,6.30801528 C0,4.64650144 1.34087062,3.29957836 3.00843692,3.29957836 L15.8462948,3.29957836 C17.5078087,3.29957836 18.8547318,4.64044898 18.8547318,6.30801528 L18.8547318,19.1458732 C18.8547318,20.807387 17.5138611,22.1543101 15.8462948,22.1543101 L3.00843692,22.1543101 C1.34692309,22.1543101 0,20.8134395 0,19.1458732 L0,6.30801528 Z M10.6529235,8.6357742 L10.6529235,11.1145579 C10.6529235,12.710741 11.94026,13.9996386 13.5282701,13.9996386 C15.1130489,13.9996386 16.4036167,12.707944 16.4036167,11.1145579 L16.4036167,8.6357742 C16.4036167,7.03959116 15.1162801,5.75069348 13.5282701,5.75069348 C11.9434913,5.75069348 10.6529235,7.04238812 10.6529235,8.6357742 Z M2.45111513,8.62752079 L2.45111513,15.8364943 C2.45111513,17.4230247 3.73845165,18.7133216 5.32646172,18.7133216 C6.91124051,18.7133216 8.20180831,17.4253221 8.20180831,15.8364943 L8.20180831,8.62752079 C8.20180831,7.04099033 6.91447179,5.75069348 5.32646172,5.75069348 C3.74168293,5.75069348 2.45111513,7.03869294 2.45111513,8.62752079 Z" id="Combined-Shape"></path>
                        </g>
                    </g>
                </g>
            </g>
        </g>
    </g>
</svg>