<?xml version="1.0" encoding="UTF-8" standalone="no"?>
<svg width="47px" height="39px" viewBox="0 0 47 39" version="1.1" xmlns="http://www.w3.org/2000/svg" xmlns:xlink="http://www.w3.org/1999/xlink">
    <!-- Generator: Sketch 3.8.1 (29687) - http://www.bohemiancoding.com/sketch -->
    <title>Page 1</title>
    <desc>Created with Sketch.</desc>
    <defs>
        <polygon id="path-1" points="46 0 0 0 0 19.0078 0 38.0156 46 38.0156 46 19.0078"></polygon>
    </defs>
    <g id="Page-1" stroke="none" stroke-width="1" fill="none" fill-rule="evenodd">
        <g id="Icons" transform="translate(-203.000000, -34.000000)">
            <g id="2" transform="translate(203.893400, 34.000000)">
                <g id="Page-1">
                    <mask id="mask-2" fill="white">
                        <use xlink:href="#path-1"></use>
                    </mask>
                    <g id="Clip-2"></g>
                    <path d="M15.184,32.676 L16.705,30.021 C16.535,30.162 16.244,30.211 15.967,30.273 C15.169,30.33 14.445,29.747 14.079,29.029 L12.155,25.725 C11.67,26.446 11.387,27.312 11.387,28.244 C11.387,30.555 12.936,32.382 15.184,32.676 L15.184,32.676 Z M15.967,26.211 L15.967,26.205 L20.079,26.205 C19.325,24.715 17.771,23.693 15.976,23.693 C14.488,23.693 13.279,24.237 12.44,25.326 L14.033,27.976 C14.164,26.901 14.956,26.299 15.967,26.211 L15.967,26.211 Z M17.043,26.675 C17.676,27.063 17.993,27.503 17.993,28.242 C17.993,28.711 17.854,29.142 17.584,29.486 L15.665,32.784 L15.665,32.785 C18.34,32.96 20.564,30.86 20.564,28.244 C20.564,27.616 20.508,27.22 20.275,26.675 L17.043,26.675 Z M16.228,29.744 C16.871,29.646 17.396,29.125 17.495,28.488 C17.653,27.465 16.777,26.597 15.746,26.753 C15.103,26.851 14.578,27.372 14.479,28.01 C14.321,29.032 15.197,29.901 16.228,29.744 L16.228,29.744 Z M26.417,29.801 C26.759,30.758 27.353,31.501 28.198,32.031 C27.224,32.484 26.556,32.521 26.19,32.146 C25.773,31.721 25.849,30.939 26.417,29.801 L26.417,29.801 Z M29.144,26.535 C29.484,26.206 29.884,26.04 30.346,26.04 C30.805,26.04 31.207,26.206 31.546,26.535 C31.887,26.864 32.071,27.261 32.097,27.728 L28.594,27.728 C28.619,27.261 28.802,26.864 29.144,26.535 L29.144,26.535 Z M33.78,24.353 C34.095,24.676 34.111,25.239 33.819,26.04 C33.338,25.291 32.695,24.748 31.887,24.413 C32.809,24.012 33.438,23.992 33.78,24.353 L33.78,24.353 Z M28.462,32.186 C29.053,32.484 29.685,32.631 30.355,32.631 C31.249,32.631 32.06,32.364 32.778,31.827 C33.498,31.29 34,30.602 34.29,29.763 L32.04,29.763 C31.874,30.06 31.649,30.295 31.367,30.47 C31.084,30.644 30.767,30.733 30.421,30.733 C30.073,30.733 29.757,30.644 29.475,30.47 C29.192,30.295 28.966,30.06 28.802,29.763 C28.663,29.477 28.594,29.18 28.594,28.871 L28.594,28.851 L34.481,28.851 C34.494,28.71 34.5,28.548 34.5,28.367 C34.5,27.605 34.315,26.894 33.953,26.234 C34.343,25.162 34.298,24.373 33.819,23.869 C33.579,23.637 33.168,23.54 32.588,23.579 C32.009,23.616 31.365,23.798 30.658,24.121 C30.556,24.108 30.457,24.103 30.355,24.103 C29.382,24.103 28.521,24.406 27.77,25.014 C27.021,25.62 26.531,26.396 26.304,27.339 C26.935,26.525 27.64,25.925 28.424,25.536 C28.334,25.614 28.132,25.821 27.818,26.156 C27.275,26.701 26.807,27.304 26.409,27.969 C26.01,28.635 25.727,29.246 25.558,29.801 C25.385,30.357 25.302,30.862 25.302,31.314 C25.302,31.765 25.4,32.089 25.603,32.282 C26.184,32.878 27.137,32.846 28.462,32.186 L28.462,32.186 Z M11.579,16.439 C11.589,16.328 11.615,16.194 11.649,16.041 C11.699,16.572 11.902,17.134 12.262,17.723 C13.037,18.968 14.17,19.647 15.653,19.757 C15.894,19.768 16.133,19.768 16.373,19.757 C16.409,19.747 16.431,19.741 16.445,19.741 C16.732,19.731 17.011,19.692 17.289,19.624 C17.804,19.512 18.265,19.328 18.67,19.066 C19.078,18.804 19.398,18.528 19.63,18.231 C19.866,17.938 20.064,17.607 20.225,17.239 C20.385,16.873 20.497,16.542 20.555,16.247 C20.617,15.953 20.655,15.653 20.674,15.347 C20.692,15.041 20.7,14.836 20.7,14.73 C20.7,14.624 20.694,14.544 20.682,14.488 L20.575,15.122 C20.479,14.344 20.365,13.804 20.234,13.503 C20.15,13.304 20.075,13.152 20.009,13.046 C19.944,12.939 19.899,12.879 19.875,12.862 C19.849,12.845 19.833,12.837 19.821,12.837 C19.882,12.97 19.925,13.096 19.954,13.212 C19.984,13.329 19.992,13.414 19.981,13.471 L19.981,13.538 C19.958,13.471 19.919,13.387 19.866,13.287 C19.812,13.187 19.677,13.035 19.461,12.827 C19.247,12.623 19.006,12.481 18.743,12.404 C18.025,12.182 17.497,12.114 17.162,12.203 L17.144,12.203 C17.3,12.237 17.435,12.265 17.547,12.287 C17.663,12.309 17.778,12.336 17.898,12.37 C18.019,12.404 18.13,12.442 18.231,12.486 C18.334,12.531 18.4,12.582 18.436,12.637 C18.126,12.637 17.82,12.676 17.522,12.755 C17.51,12.755 17.522,12.756 17.558,12.762 C17.594,12.768 17.647,12.779 17.721,12.795 C17.792,12.811 17.872,12.834 17.962,12.862 C18.053,12.889 18.146,12.929 18.249,12.978 C18.351,13.029 18.456,13.085 18.563,13.145 C18.67,13.207 18.776,13.285 18.879,13.378 C18.979,13.473 19.075,13.574 19.164,13.679 C19.255,13.785 19.336,13.912 19.408,14.063 C19.479,14.214 19.532,14.377 19.57,14.555 C19.437,14.311 19.293,14.166 19.139,14.121 C19.221,14.344 19.257,14.624 19.247,14.963 C19.233,15.302 19.191,15.578 19.119,15.789 L19.084,15.755 C19.024,15.6 18.923,15.495 18.779,15.438 C18.838,15.793 18.829,16.161 18.752,16.538 C18.675,16.917 18.533,17.172 18.33,17.307 C18.318,17.307 18.33,17.229 18.366,17.073 C18.45,16.772 18.478,16.624 18.456,16.624 C18.444,16.634 18.42,16.666 18.384,16.722 C18.204,16.967 18.017,17.171 17.819,17.331 C17.621,17.493 17.435,17.607 17.262,17.673 C17.088,17.739 16.896,17.774 16.687,17.774 C16.478,17.774 16.303,17.759 16.168,17.731 C16.027,17.704 15.864,17.643 15.673,17.548 C15.482,17.454 15.343,17.384 15.259,17.339 C15.175,17.295 15.061,17.224 14.919,17.123 C15.097,17.167 15.322,17.167 15.591,17.123 C15.86,17.079 16.068,17.006 16.211,16.906 C16.247,16.894 16.291,16.87 16.345,16.832 C16.4,16.791 16.439,16.766 16.464,16.755 C16.486,16.744 16.519,16.726 16.562,16.698 C16.604,16.67 16.634,16.653 16.651,16.647 C16.669,16.642 16.699,16.631 16.741,16.615 C16.782,16.598 16.81,16.593 16.821,16.598 C16.834,16.603 16.858,16.6 16.894,16.589 C16.977,16.611 17.039,16.593 17.081,16.531 C17.124,16.47 17.108,16.405 17.036,16.338 C16.81,16.094 16.516,16.017 16.157,16.106 C16.11,16.118 16.027,16.145 15.915,16.188 C15.801,16.234 15.704,16.268 15.626,16.289 C15.549,16.311 15.441,16.317 15.306,16.306 C15.167,16.295 15.032,16.251 14.9,16.171 C14.578,15.994 14.415,15.801 14.415,15.588 C14.426,15.544 14.439,15.499 14.452,15.455 C14.474,15.378 14.57,15.306 14.738,15.237 C14.87,15.262 15.009,15.306 15.151,15.372 L15.151,15.221 C15.162,15.199 15.158,15.138 15.132,15.038 C15.123,14.938 15.097,14.854 15.061,14.788 L15.081,14.788 L15.081,14.771 C15.081,14.738 15.158,14.677 15.313,14.589 C15.396,14.532 15.511,14.46 15.653,14.371 C15.761,14.316 15.817,14.282 15.817,14.271 C15.826,14.271 15.834,14.269 15.834,14.262 C15.834,14.257 15.839,14.254 15.851,14.254 C15.923,14.198 15.965,14.116 15.977,14.004 L15.977,13.971 C15.988,13.949 15.988,13.932 15.977,13.921 L15.977,13.887 C15.965,13.854 15.858,13.837 15.653,13.837 L15.259,13.837 C15.045,13.837 14.87,13.709 14.738,13.453 C14.811,13.098 15.019,12.826 15.366,12.637 L15.025,12.653 C14.631,12.732 14.336,12.883 14.147,13.104 C13.823,13.036 13.509,13.031 13.211,13.087 C13.152,13.087 13.088,13.081 13.014,13.07 C12.728,12.826 12.577,12.57 12.566,12.303 C12.531,12.336 12.482,12.384 12.421,12.446 C12.363,12.506 12.287,12.662 12.198,12.912 C12.108,13.161 12.075,13.443 12.1,13.753 L12.1,13.804 C11.967,13.981 11.896,14.104 11.883,14.171 C11.727,14.46 11.601,14.854 11.507,15.355 C11.554,15.21 11.633,15.054 11.74,14.888 C11.596,15.289 11.543,15.805 11.579,16.439 L11.579,16.439 Z M2.538,4.453 L3.834,4.453 L3.834,3.168 L2.538,3.168 L2.538,4.453 Z M4.47,4.426 L5.748,4.426 L5.748,3.158 L4.47,3.158 L4.47,4.426 Z M7.02,4.451 L33.226,4.451 L33.226,3.167 L7.02,3.167 L7.02,4.451 Z M34.5,4.451 L43.46,4.451 L43.46,3.167 L34.5,3.167 L34.5,4.451 Z M44.715,6.328 L1.286,6.328 L1.286,3.936 C1.286,2.468 2.49,1.275 3.969,1.275 L42.031,1.275 C43.511,1.275 44.715,2.468 44.715,3.936 L44.715,6.328 Z M44.715,34.08 C44.715,35.548 43.511,36.741 42.031,36.741 L3.969,36.741 C2.49,36.741 1.286,35.548 1.286,34.08 L1.286,7.603 L44.715,7.603 L44.715,34.08 Z M42.55,0 L3.45,0 C1.548,0 0,1.534 0,3.422 L0,34.595 C0,36.481 1.548,38.016 3.45,38.016 L42.55,38.016 C44.453,38.016 46,36.481 46,34.595 L46,3.422 C46,1.534 44.453,0 42.55,0 L42.55,0 Z M29.907,16.149 C30.047,15.931 30.239,15.796 30.481,15.746 C30.545,15.732 30.608,15.726 30.673,15.726 L30.787,15.726 C30.876,15.74 30.959,15.765 31.034,15.802 L30.347,16.323 L29.829,17.018 C29.803,16.954 29.786,16.897 29.773,16.844 C29.721,16.6 29.766,16.368 29.907,16.149 L29.907,16.149 Z M31.514,16.285 C31.539,16.35 31.558,16.407 31.572,16.459 C31.61,16.651 31.591,16.838 31.514,17.018 C31.438,17.198 31.317,17.34 31.151,17.443 C31.06,17.494 30.965,17.533 30.865,17.558 C30.799,17.572 30.735,17.578 30.673,17.578 L30.558,17.578 C30.467,17.565 30.385,17.539 30.308,17.5 L30.997,16.981 L31.514,16.285 Z M28.298,19.043 L30.175,17.616 C30.314,17.679 30.467,17.719 30.633,17.733 L31.113,18.774 L31.151,17.616 C31.278,17.552 31.386,17.469 31.477,17.365 L32.09,17.578 L31.647,17.116 C31.712,16.974 31.744,16.832 31.744,16.69 L32.778,16.208 L31.629,16.169 L31.629,16.149 L33.045,14.259 L31.171,15.686 C31.028,15.623 30.876,15.584 30.711,15.571 L30.233,14.529 L30.193,15.686 C30.066,15.751 29.956,15.835 29.868,15.938 L29.256,15.726 L29.695,16.189 C29.632,16.331 29.6,16.471 29.6,16.611 L28.567,17.096 L29.715,17.134 L29.715,17.152 L28.298,19.043 Z M27.225,17.115 C27.199,16.961 27.189,16.806 27.189,16.652 C27.189,15.687 27.525,14.858 28.203,14.164 C28.623,13.738 29.121,13.442 29.695,13.277 L30.099,13.951 L30.213,13.179 C30.366,13.154 30.52,13.14 30.672,13.14 C31.63,13.14 32.452,13.482 33.142,14.164 C33.562,14.587 33.856,15.089 34.022,15.668 L33.352,16.072 L34.117,16.189 C34.143,16.344 34.155,16.498 34.155,16.652 C34.155,17.615 33.817,18.447 33.142,19.141 C32.72,19.565 32.223,19.86 31.648,20.027 L31.245,19.353 L31.132,20.124 C30.978,20.149 30.826,20.162 30.672,20.162 C29.714,20.162 28.891,19.823 28.203,19.141 C27.782,18.716 27.488,18.215 27.323,17.635 L27.991,17.23 L27.225,17.115 Z M29.255,11.867 C29.242,11.816 29.269,11.758 29.333,11.693 C29.396,11.63 29.479,11.59 29.581,11.579 C29.621,11.566 29.656,11.559 29.695,11.559 C29.874,11.559 29.975,11.61 30.001,11.713 C30.014,11.79 29.975,11.861 29.888,11.926 C29.81,11.874 29.73,11.858 29.648,11.877 C29.564,11.896 29.497,11.945 29.447,12.022 C29.344,11.996 29.281,11.945 29.255,11.867 L29.255,11.867 Z M30.672,21.282 C31.937,21.282 33.018,20.83 33.917,19.92 C34.816,19.015 35.267,17.924 35.267,16.652 C35.267,15.378 34.816,14.288 33.917,13.382 C33.018,12.476 31.937,12.022 30.672,12.022 C30.442,12.022 30.22,12.042 30.001,12.08 C29.988,12.066 29.982,12.053 29.982,12.042 C30.123,11.939 30.174,11.823 30.135,11.693 C30.099,11.501 29.949,11.405 29.695,11.405 C29.643,11.405 29.594,11.411 29.542,11.425 C29.402,11.45 29.29,11.51 29.207,11.607 C29.124,11.703 29.096,11.804 29.121,11.906 C29.147,12.047 29.242,12.137 29.408,12.176 L29.408,12.195 C28.438,12.478 27.642,13.032 27.017,13.855 C26.391,14.677 26.079,15.61 26.079,16.652 C26.079,17.924 26.526,19.015 27.425,19.92 C28.328,20.83 29.408,21.282 30.672,21.282 L30.672,21.282 Z" id="Fill-1" fill="#818791" mask="url(#mask-2)"></path>
                </g>
            </g>
        </g>
    </g>
</svg>